<svg width="82" height="81" fill="none" xmlns="http://www.w3.org/2000/svg"><path d="M38.5 45V32.5l35.5-1 1.5 39H81v2.754L75.5 74l-40 2.5V80l-7.5-.5v-3l-27.5 1V75l44-3V59h-11v6H28v-9.5h7V51h3.5v-6z" fill="#fff" stroke="#1A1A1F"/><path d="M57 .5c-7.844 0-14.226 6.382-14.226 14.226 0 2.049.419 4 1.242 5.804 3.65 7.986 10.666 16.445 12.742 18.86l-.38.325.38-.326a.32.32 0 00.484 0l.379.326-.38-.326c2.075-2.413 9.092-10.872 12.743-18.86a13.858 13.858 0 001.242-5.803L57 .5zm0 0c7.843 0 14.225 6.382 14.226 14.226L57 .5zm0 22.375c-4.494 0-8.15-3.655-8.15-8.149s3.656-8.15 8.15-8.15c4.493 0 8.149 3.656 8.149 8.15l-8.15 8.15zm0 0c4.493 0 8.15-3.655 8.149-8.149l-8.15 8.15z" fill="#FFC700" stroke="#1A1A1F"/></svg>