<svg width="40" height="40" fill="none" xmlns="http://www.w3.org/2000/svg"><path d="M20 .5C12.155.5 5.773 6.882 5.773 14.726c0 2.049.419 4 1.242 5.804 3.65 7.986 10.666 16.445 12.742 18.86l-.38.325.38-.326a.32.32 0 00.484 0l.379.326-.38-.326c2.075-2.413 9.092-10.872 12.742-18.86a13.858 13.858 0 001.243-5.803L20 .5zm0 0c7.843 0 14.225 6.382 14.226 14.226L20 .5zm0 22.375c-4.494 0-8.15-3.655-8.15-8.149s3.656-8.15 8.15-8.15c4.493 0 8.149 3.656 8.149 8.15l-8.15 8.15zm0 0c4.494 0 8.15-3.655 8.149-8.149l-8.15 8.15z" fill="#FFC700" stroke="#1A1A1F"/></svg>