<svg width="950" height="49" fill="none" xmlns="http://www.w3.org/2000/svg"><path fill="#1A1A1F" d="M0 15.077h1V49H0zM26 0h1v33.923h-1zm25 15.077h1V49h-1zM77 0h1v33.923h-1zm26 15.077h1V49h-1zM128 0h1v33.923h-1zm26 15.077h1V49h-1zM179 0h1v33.923h-1zm26 15.077h1V49h-1zM231 0h1v33.923h-1zm25 15.077h1V49h-1zM282 0h1v33.923h-1zm26 15.077h1V49h-1zM333 0h1v33.923h-1zm26 15.077h1V49h-1zM385 0h1v33.923h-1zm25 15.077h1V49h-1zM436 0h1v33.923h-1zm26 15.077h1V49h-1zM487 0h1v33.923h-1zm26 15.077h1V49h-1zM538 0h1v33.923h-1zm26 15.077h1V49h-1zM590 0h1v33.923h-1zm25 15.077h1V49h-1zM641 0h1v33.923h-1zm26 15.077h1V49h-1zM692 0h1v33.923h-1zm26 15.077h1V49h-1zM744 0h1v33.923h-1zm25 15.077h1V49h-1zM795 0h1v33.923h-1zm25 15.077h1V49h-1zM846 0h1v33.923h-1zm26 15.077h1V49h-1zM897 0h1v33.923h-1zm26 15.077h1V49h-1zM949 0h1v33.923h-1z"/></svg>