<?xml version="1.0" encoding="utf-8"?><svg viewBox="0 0 159 96" xmlns="http://www.w3.org/2000/svg" xmlns:xlink="http://www.w3.org/1999/xlink"><style>:root>svg{display:none}:root>svg:target{display:block}</style><svg fill="none" viewBox="0 0 40 40" id="battery" xmlns="http://www.w3.org/2000/svg"><path d="M29.697 40H10.303a3.034 3.034 0 01-3.03-3.03V7.879c0-1.672 1.36-3.03 3.03-3.03h19.394c1.67 0 3.03 1.358 3.03 3.03v29.09c0 1.672-1.36 3.03-3.03 3.03zM10.303 6.06A1.82 1.82 0 008.485 7.88v29.09a1.82 1.82 0 001.818 1.819h19.394a1.82 1.82 0 001.818-1.818V7.879a1.82 1.82 0 00-1.818-1.818H10.303z" fill="#FFC700"/><path d="M23.94 6.06h-7.88a.606.606 0 01-.605-.605V.606c0-.334.271-.606.606-.606h7.878c.335 0 .606.272.606.606v4.849a.606.606 0 01-.606.606zm-7.273-1.212h6.666V1.212h-6.666v3.636zM16.287 32.203a.607.607 0 01-.568-.813l2.874-7.905-3.287-.937a.604.604 0 01-.297-.973l7.337-8.714a.607.607 0 011.046.558l-2.027 7.03 3.33.948a.606.606 0 01.294.977l-8.239 9.62a.616.616 0 01-.463.21zm.251-10.564l3.012.859a.604.604 0 01.402.79l-1.957 5.382 5.455-6.367-3.005-.857a.605.605 0 01-.416-.75l1.406-4.876-4.897 5.819z" fill="#FFC700"/></svg><svg fill="none" viewBox="0 0 24 24" id="close" xmlns="http://www.w3.org/2000/svg"><g clip-path="url(#bclip0)" fill="#626266"><path d="M23.716.284a.97.97 0 00-1.371 0L.284 22.345a.97.97 0 101.37 1.371L23.717 1.655a.97.97 0 000-1.371z"/><path d="M23.716 22.345L1.655.284A.97.97 0 10.284 1.655l22.06 22.061a.967.967 0 001.372 0 .97.97 0 000-1.371z"/></g><defs><clipPath id="bclip0"><path fill="#fff" d="M0 0h24v24H0z"/></clipPath></defs></svg><svg fill="none" viewBox="0 0 96 96" id="delivery-truck" xmlns="http://www.w3.org/2000/svg"><path d="M96 69.938v-16.69c0-.497-.198-.974-.55-1.326L79.313 35.786a3.725 3.725 0 00-2.651-1.098H67.5v-3.897c0-4.135-3.365-7.5-7.5-7.5H38.924c.294-1.153.45-2.36.45-3.604 0-8.064-6.56-14.625-14.624-14.625-8.065 0-14.625 6.561-14.625 14.625 0 1.288.169 2.537.483 3.727-3.496.636-6.155 3.701-6.155 7.377v39.147c0 4.136 3.365 7.5 7.5 7.5h4.936a8.576 8.576 0 00-1.514 4.874c0 1.809.56 3.488 1.515 4.876H1.875a1.875 1.875 0 000 3.75h33.699a1.875 1.875 0 000-3.75H31.11a8.575 8.575 0 001.515-4.876c0-1.807-.56-3.486-1.514-4.874H66.39a8.574 8.574 0 00-1.515 4.874c0 1.809.56 3.487 1.515 4.875H49.187a1.875 1.875 0 000 3.75h44.938a1.875 1.875 0 000-3.75H80.61a8.574 8.574 0 001.515-4.874c0-1.808-.56-3.487-1.515-4.875h7.89c4.135 0 7.5-3.364 7.5-7.5zM24.75 8.812c5.996 0 10.875 4.88 10.875 10.876 0 5.996-4.879 10.875-10.875 10.875-5.997 0-10.875-4.88-10.875-10.875 0-5.997 4.878-10.875 10.875-10.875zM24 87.189a4.88 4.88 0 01-4.875-4.876 4.88 4.88 0 014.853-4.874h.044a4.88 4.88 0 014.853 4.874A4.88 4.88 0 0124 87.189zM63.75 32.25H48.375a1.875 1.875 0 000 3.75H63.75v33.938a3.754 3.754 0 01-3.75 3.75H11.953a3.754 3.754 0 01-3.75-3.75v-15h7.116l-1.99 1.99a1.875 1.875 0 002.651 2.651l5.191-5.19a1.875 1.875 0 000-2.653l-5.19-5.19a1.876 1.876 0 00-2.652 2.652l1.99 1.99H8.203V30.79a3.754 3.754 0 013.75-3.75h.163c2.539 4.345 7.25 7.271 12.634 7.271s10.095-2.926 12.634-7.27H60a3.754 3.754 0 013.75 3.75v1.458zm28.5 21.775v.913h-6.723l3.818-3.818 2.905 2.905zM76.599 38.438h.061l5.626 5.624-2.612 2.612a1.875 1.875 0 002.652 2.652l2.612-2.612 1.754 1.754-6.463 6.463a3.752 3.752 0 01-3.63-3.743v-12.75zm-3.092 48.75h-.014a4.88 4.88 0 01-4.868-4.876 4.88 4.88 0 014.853-4.874h.044a4.88 4.88 0 014.853 4.874 4.88 4.88 0 01-4.868 4.875zm-7.016-13.5a7.452 7.452 0 001.009-3.75v-31.5h5.349v12.75c0 4.135 3.364 7.5 7.5 7.5H92.25v11.25a3.754 3.754 0 01-3.75 3.75H66.49z" fill="#FFC700"/><path d="M42.822 87.188h-.024a1.875 1.875 0 000 3.75h.024a1.875 1.875 0 000-3.75zM32.5 56.684h-1.044c1.516-1.743 2.918-3.967 2.918-6.233 0-2.86-1.92-4.781-4.78-4.781a4.786 4.786 0 00-4.782 4.781 1.875 1.875 0 003.75 0c0-.569.463-1.031 1.031-1.031.867 0 1.032.362 1.032 1.031 0 2.168-3.402 5.381-5.048 6.597a1.875 1.875 0 001.11 3.386H32.5a1.875 1.875 0 000-3.75zM45.99 51.23v-3.685a1.875 1.875 0 00-3.75 0v3.636h-2.16v-3.636a1.875 1.875 0 00-3.75 0v5.511c0 1.036.84 1.876 1.875 1.876h4.034v3.648a1.875 1.875 0 003.75 0v-3.698a1.875 1.875 0 000-3.651zM54.448 51.213c-.294 0-.582.03-.86.082v-3.75a1.875 1.875 0 00-3.75 0V58.558a1.875 1.875 0 003.75 0V55.824a.861.861 0 011.72 0v2.736a1.875 1.875 0 003.75 0v-2.736a4.615 4.615 0 00-4.61-4.61zM28.812 18.062h-2.437v-4.497a1.875 1.875 0 00-3.75 0v6.372c0 1.036.84 1.875 1.875 1.875h4.312a1.875 1.875 0 000-3.75zM42.2 32.8a1.888 1.888 0 00-1.325-.55c-.493 0-.977.2-1.326.55A1.89 1.89 0 0039 34.124c0 .493.2.977.55 1.325.348.35.832.55 1.325.55s.977-.2 1.325-.55c.35-.348.55-.832.55-1.325s-.2-.977-.55-1.326z" fill="#fff"/></svg><svg fill="none" viewBox="0 0 40 40" id="drop" xmlns="http://www.w3.org/2000/svg"><path d="M22.756 17.225a.67.67 0 00-.033-.074l-1.563-3.012a.672.672 0 10-1.194.62l1.544 2.974a8.88 8.88 0 01-.255 6.8 8.88 8.88 0 01-5.006 4.664c-.91.34-1.862.528-2.833.56a8.92 8.92 0 01-2.834-.56 8.88 8.88 0 01-5.005-4.664 8.88 8.88 0 01-.255-6.8l8.094-15.6 5.484 10.57a.673.673 0 001.194-.62L14.013.364a.673.673 0 00-1.194 0L4.109 17.15a.697.697 0 00-.033.074 10.216 10.216 0 00.277 7.866 10.216 10.216 0 005.759 5.366 10.26 10.26 0 003.324.645 10.257 10.257 0 003.284-.645 10.216 10.216 0 005.758-5.366 10.216 10.216 0 00.278-7.866zM36.238 21.73a.695.695 0 00-.033-.075l-1.532-2.953a.673.673 0 00-1.194.62l1.512 2.915a4.071 4.071 0 01-3.678 5.45 4.06 4.06 0 01-1.278-.255 4.04 4.04 0 01-2.277-2.122 4.039 4.039 0 01-.123-3.073l3.678-7.09 1.219 2.349a.673.673 0 001.194-.62l-1.816-3.499a.672.672 0 00-1.194 0l-4.295 8.278a.677.677 0 00-.033.074 5.376 5.376 0 00.146 4.14 5.377 5.377 0 003.03 2.823 5.407 5.407 0 001.77.34 5.418 5.418 0 004.904-7.302zM27.654 34.757l-2.862-5.516a.672.672 0 00-1.193 0l-2.862 5.516a.698.698 0 00-.034.074A3.835 3.835 0 0024.195 40h.021a3.835 3.835 0 003.47-5.169.706.706 0 00-.032-.074zm-2.685 3.742a2.487 2.487 0 01-.774.156 2.485 2.485 0 01-2.245-3.317l2.245-4.327 2.245 4.327a2.488 2.488 0 01-1.471 3.161z" fill="#FFC700"/></svg><svg fill="none" viewBox="0 0 32 32" id="facebook" xmlns="http://www.w3.org/2000/svg"><path d="M16 32c8.837 0 16-7.163 16-16S24.837 0 16 0 0 7.163 0 16s7.163 16 16 16z" fill="#3B5998"/><path d="M20.022 16.627h-2.855v10.459h-4.325v-10.46h-2.058v-3.675h2.058v-2.38c0-1.7.808-4.364 4.364-4.364l3.204.014v3.568h-2.325c-.381 0-.917.19-.917 1.002v2.163H20.4l-.378 3.672z" fill="#fff"/></svg><svg fill="none" viewBox="0 0 71 71" id="gift" xmlns="http://www.w3.org/2000/svg"><g clip-path="url(#fclip0)"><path fill="#FFC700" d="M2 17h67v15H2z"/><path fill="#FFC700" d="M2 17h67v15H2z"/><path fill="#FFC700" d="M2 17h67v15H2zM7 32h57v35H7z"/><path fill="#FFC700" d="M7 32h57v35H7z"/><path fill="#FFC700" d="M7 32h57v35H7z"/><g filter="url(#ffilter0_d)"><path d="M54.526 14.685a7.845 7.845 0 002.094-5.352c0-4.34-3.467-7.808-7.669-7.808-3.19 0-10.539 4.77-13.479 9.056-3.037-4.285-10.359-8.917-13.423-8.917-4.188 0-7.669 3.467-7.669 7.807a7.85 7.85 0 001.955 5.2H1.525v18.652h4.05v36.152H65.439V33.337h4.036V14.685h-14.95zM48.95 4.424c2.607 0 4.77 2.163 4.77 5.061 0 2.44-1.705 4.535-3.91 4.979H38.079c-.748-.222-.984-.486-.984-.638 0-2.469 8.667-9.402 11.856-9.402zm-26.902 0c3.037 0 11.856 6.933 11.856 9.402 0 .221-.513.471-.887.637H21.203c-2.205-.443-3.91-2.537-3.91-4.978-.014-2.76 2.163-5.061 4.756-5.061zm4.77 62.152H8.46v-33.24h18.36v33.24zm0-35.985H4.424V17.584h22.409V30.59h-.014zm14.45 35.985H29.703V17.57H41.27v49.006zm21.258 0h-18.36v-33.24h18.36v33.24zm4.035-35.985H44.168V17.584h22.41V30.59h-.014z" fill="#1A1A1F"/></g></g><defs><clipPath id="fclip0"><path fill="#fff" d="M0 0h71v71H0z"/></clipPath><filter id="ffilter0_d" x="-22.475" y="-22.475" width="115.949" height="115.949" filterUnits="userSpaceOnUse" color-interpolation-filters="sRGB"><feFlood flood-opacity="0" result="BackgroundImageFix"/><feColorMatrix in="SourceAlpha" values="0 0 0 0 0 0 0 0 0 0 0 0 0 0 0 0 0 0 127 0"/><feOffset/><feGaussianBlur stdDeviation="12"/><feColorMatrix values="0 0 0 0 1 0 0 0 0 0.780392 0 0 0 0 0 0 0 0 1 0"/><feBlend in2="BackgroundImageFix" result="effect1_dropShadow"/><feBlend in="SourceGraphic" in2="effect1_dropShadow" result="shape"/></filter></defs></svg><svg fill="none" viewBox="0 0 40 40" id="idea" xmlns="http://www.w3.org/2000/svg"><path d="M20 5.926c-6.944 0-12.593 5.649-12.593 12.593 0 5.268 3.253 9.934 8.149 11.777v6.741c0 .41.33.74.74.74h.741v1.482c0 .41.331.741.74.741h4.445a.74.74 0 00.74-.74v-1.482h.742a.74.74 0 00.74-.74v-6.742a12.563 12.563 0 008.149-11.777c0-6.944-5.65-12.593-12.593-12.593zm2.222 30.37a.74.74 0 00-.74.741v1.482h-2.963v-1.482a.74.74 0 00-.741-.74h-.741v-3.704h5.926v3.703h-.74zm1.25-7.228a.741.741 0 00-.51.704v1.34h-5.925v-1.34a.74.74 0 00-.51-.704 11.086 11.086 0 01-7.638-10.55c0-6.126 4.984-11.11 11.11-11.11 6.128 0 11.112 4.984 11.112 11.11 0 4.808-3.07 9.048-7.639 10.55zM20 4.444a.74.74 0 00.74-.74V.74a.74.74 0 10-1.48 0v2.963c0 .41.33.74.74.74zM37.778 17.778h-2.963a.74.74 0 100 1.481h2.963a.74.74 0 100-1.481zM5.185 17.778H2.222a.74.74 0 100 1.481h2.963a.74.74 0 100-1.481zM32.047 5.424l-2.094 2.095A.74.74 0 1031 8.566l2.095-2.095a.74.74 0 10-1.048-1.047zM9 28.471l-2.095 2.095a.74.74 0 101.047 1.047l2.095-2.095A.74.74 0 109 28.471zM31 28.471a.74.74 0 10-1.047 1.047l2.094 2.095a.739.739 0 001.048 0 .74.74 0 000-1.047L31 28.47zM9 8.566a.739.739 0 001.047 0 .74.74 0 000-1.047L7.952 5.424A.74.74 0 106.905 6.47L9 8.566z" fill="#FFC700"/><path d="M20 9.63c-4.902 0-8.889 3.987-8.889 8.888a.74.74 0 101.482 0c0-4.084 3.322-7.407 7.407-7.407a.74.74 0 100-1.481z" fill="#FFC700"/></svg><svg fill="none" viewBox="0 0 32 32" id="instagram" xmlns="http://www.w3.org/2000/svg"><path d="M16.001 0C7.181 0 0 7.178 0 15.997 0 24.82 7.182 32 16.001 32 24.824 32 32 24.82 32 15.997 32 7.18 24.823 0 16.001 0z" fill="#fff"/><path d="M20.769 8.514H11.23a2.764 2.764 0 00-2.76 2.76v9.538a2.764 2.764 0 002.76 2.761h9.538a2.764 2.764 0 002.761-2.761v-9.538a2.764 2.764 0 00-2.761-2.76zM16 21a4.963 4.963 0 01-4.957-4.958A4.963 4.963 0 0116 11.086a4.963 4.963 0 014.958 4.957A4.964 4.964 0 0116 21.001zm5.117-8.89a1.174 1.174 0 01-1.173-1.173c0-.647.526-1.173 1.173-1.173s1.173.526 1.173 1.173-.526 1.173-1.173 1.173z" fill="#E541AE"/><path d="M16 13.18a2.866 2.866 0 00-2.863 2.863A2.867 2.867 0 0016 18.906a2.866 2.866 0 002.863-2.863A2.866 2.866 0 0016 13.18z" fill="#E541AE"/><path d="M16 0C7.164 0 0 7.164 0 16s7.164 16 16 16 16-7.164 16-16S24.836 0 16 0zm9.625 20.812a4.86 4.86 0 01-4.856 4.856H11.23a4.861 4.861 0 01-4.855-4.856v-9.538A4.861 4.861 0 0111.23 6.42h9.538a4.861 4.861 0 014.856 4.855v9.538z" fill="#E541AE"/></svg><svg fill="none" viewBox="0 0 159 50" id="logo" xmlns="http://www.w3.org/2000/svg"><g clip-path="url(#iclip0)"><path d="M43.245 27.423l-7.17-.513-4.74-7.895-2.37-3.953v-1.095a2.152 2.152 0 00-2.928-2.008l-6.815 2.629.515-1.728a3.212 3.212 0 00-1.585-3.701l-5.347-2.873a.828.828 0 00-1.1.303L3.86 19.149l-.165-.097a.827.827 0 00-1.13.306l-.014.026-2.455 4.622a.828.828 0 00.33 1.113L30.29 41.67a.83.83 0 00.401.104h12.344A4.97 4.97 0 0048 36.808v-4.28a5.136 5.136 0 00-4.755-5.105zm-8.9-.178l-.945.316-7.406-9.628 1.904-1.43 6.447 10.742zM12.717 8.117l4.652 2.497a1.56 1.56 0 01.777 1.787l-.684 2.304-4.75-2.849-1.646-.987 1.651-2.752zm-4.9 7.899l.424-.662 2.723 2.025a4.74 4.74 0 011.845 4.47l-.103 2.39-7.396-4.262 2.507-3.961zm35.218 24.103H30.904L1.938 24.063l1.673-3.144 27.424 15.779c.125.072.268.11.413.11h14.897a3.31 3.31 0 01-3.31 3.31zm3.31-4.966H31.669l-5.676-3.268 1.908-1.946a.827.827 0 00-1.182-1.159l-2.207 2.252-3.146-1.813 3.155-2.523a.828.828 0 00-1.035-1.293l-3.66 2.93-2.695-1.55 4.088-3.407a.828.828 0 10-1.06-1.273l-4.557 3.8-1.28-.737.134-3.177a6.356 6.356 0 00-2.505-5.942l-2.82-2.097 1.066-1.672 7.325 4.395a.808.808 0 00.32.104c.02 0 .038.006.058.008.02.001.032.005.048.005a.822.822 0 00.3-.055l8.383-3.233a.497.497 0 01.677.468v.91l-2.98 2.234a.827.827 0 00-.159 1.166l8.277 10.759c.213.28.582.393.916.28l2.327-.775 7.437.531a3.476 3.476 0 013.219 3.453v2.625z" fill="#FFC700"/></g><path d="M64.9 18.644h4.068V32H64.9V18.644zm16.347 8.424c0 .06-.018.378-.054.954h-6.84a1.7 1.7 0 00.72.864c.336.192.756.288 1.26.288.432 0 .792-.054 1.08-.162.3-.108.624-.294.972-.558l2.124 2.142c-.96 1.056-2.394 1.584-4.302 1.584-1.188 0-2.232-.216-3.132-.648-.9-.444-1.596-1.056-2.088-1.836s-.738-1.656-.738-2.628c0-.984.24-1.86.72-2.628a5.04 5.04 0 011.998-1.818c.852-.432 1.806-.648 2.862-.648.996 0 1.902.198 2.718.594a4.61 4.61 0 011.962 1.746c.492.768.738 1.686.738 2.754zm-5.382-2.322c-.42 0-.768.114-1.044.342-.276.228-.456.552-.54.972h3.168c-.084-.408-.264-.726-.54-.954-.276-.24-.624-.36-1.044-.36zm17.556-6.102V32h-3.87v-.81c-.588.66-1.488.99-2.7.99a4.835 4.835 0 01-2.394-.612c-.72-.42-1.296-1.02-1.728-1.8-.42-.78-.63-1.68-.63-2.7 0-1.02.21-1.914.63-2.682.432-.78 1.008-1.374 1.728-1.782.732-.42 1.53-.63 2.394-.63 1.092 0 1.926.282 2.502.846v-4.176h4.068zm-5.598 10.368c.468 0 .852-.168 1.152-.504.3-.348.45-.828.45-1.44s-.15-1.086-.45-1.422a1.475 1.475 0 00-1.152-.504c-.468 0-.852.168-1.152.504-.3.336-.45.81-.45 1.422 0 .612.15 1.092.45 1.44.3.336.684.504 1.152.504zm7.31-3.744h5.399v3.06h-5.4v-3.06zm10.955 6.912c-.84 0-1.668-.09-2.484-.27-.816-.18-1.476-.414-1.98-.702l1.116-2.682c.456.276.996.492 1.62.648.624.156 1.23.234 1.818.234.468 0 .792-.036.972-.108.192-.084.288-.204.288-.36s-.12-.264-.36-.324c-.228-.06-.606-.12-1.134-.18a16.209 16.209 0 01-2.052-.36 3.349 3.349 0 01-1.494-.882c-.42-.432-.63-1.05-.63-1.854 0-.636.192-1.206.576-1.71.384-.504.954-.906 1.71-1.206.768-.3 1.686-.45 2.754-.45.744 0 1.47.072 2.178.216.72.132 1.332.33 1.836.594l-1.116 2.682a5.758 5.758 0 00-2.844-.72c-.888 0-1.332.156-1.332.468 0 .156.12.27.36.342.24.06.618.12 1.134.18.804.096 1.482.222 2.034.378a3.23 3.23 0 011.476.882c.432.432.648 1.05.648 1.854 0 .612-.192 1.17-.576 1.674-.384.504-.96.906-1.728 1.206-.768.3-1.698.45-2.79.45zm13.166-10.206c1.212 0 2.184.366 2.916 1.098.744.732 1.116 1.836 1.116 3.312V32h-4.068v-4.914c0-1.128-.402-1.692-1.206-1.692-.456 0-.828.162-1.116.486-.276.312-.414.81-.414 1.494V32h-4.068V18.644h4.068v4.302c.756-.648 1.68-.972 2.772-.972zM130.43 32.18c-1.092 0-2.076-.216-2.952-.648-.864-.444-1.542-1.05-2.034-1.818-.492-.78-.738-1.662-.738-2.646s.246-1.86.738-2.628a4.984 4.984 0 012.034-1.818c.876-.432 1.86-.648 2.952-.648 1.104 0 2.088.216 2.952.648.876.432 1.554 1.038 2.034 1.818.492.768.738 1.644.738 2.628 0 .984-.246 1.866-.738 2.646-.48.768-1.158 1.374-2.034 1.818-.864.432-1.848.648-2.952.648zm0-3.168c.468 0 .852-.168 1.152-.504.3-.348.45-.828.45-1.44s-.15-1.086-.45-1.422a1.475 1.475 0 00-1.152-.504c-.468 0-.852.168-1.152.504-.3.336-.45.81-.45 1.422 0 .612.15 1.092.45 1.44.3.336.684.504 1.152.504zm17.473-1.944c0 .06-.018.378-.054.954h-6.84a1.7 1.7 0 00.72.864c.336.192.756.288 1.26.288.432 0 .792-.054 1.08-.162.3-.108.624-.294.972-.558l2.124 2.142c-.96 1.056-2.394 1.584-4.302 1.584-1.188 0-2.232-.216-3.132-.648-.9-.444-1.596-1.056-2.088-1.836s-.738-1.656-.738-2.628c0-.984.24-1.86.72-2.628a5.04 5.04 0 011.998-1.818c.852-.432 1.806-.648 2.862-.648.996 0 1.902.198 2.718.594a4.61 4.61 0 011.962 1.746c.492.768.738 1.686.738 2.754zm-5.382-2.322c-.42 0-.768.114-1.044.342-.276.228-.456.552-.54.972h3.168c-.084-.408-.264-.726-.54-.954-.276-.24-.624-.36-1.044-.36zm10.518 7.434c-.84 0-1.668-.09-2.484-.27-.816-.18-1.476-.414-1.98-.702l1.116-2.682c.456.276.996.492 1.62.648.624.156 1.23.234 1.818.234.468 0 .792-.036.972-.108.192-.084.288-.204.288-.36s-.12-.264-.36-.324c-.228-.06-.606-.12-1.134-.18a16.209 16.209 0 01-2.052-.36 3.349 3.349 0 01-1.494-.882c-.42-.432-.63-1.05-.63-1.854 0-.636.192-1.206.576-1.71.384-.504.954-.906 1.71-1.206.768-.3 1.686-.45 2.754-.45.744 0 1.47.072 2.178.216.72.132 1.332.33 1.836.594l-1.116 2.682a5.758 5.758 0 00-2.844-.72c-.888 0-1.332.156-1.332.468 0 .156.12.27.36.342.24.06.618.12 1.134.18.804.096 1.482.222 2.034.378a3.23 3.23 0 011.476.882c.432.432.648 1.05.648 1.854 0 .612-.192 1.17-.576 1.674-.384.504-.96.906-1.728 1.206-.768.3-1.698.45-2.79.45z" fill="#fff"/><defs><clipPath id="iclip0"><path fill="#fff" d="M0 0h48v48H0z"/></clipPath></defs></svg><svg fill="none" viewBox="0 0 96 96" id="open" xmlns="http://www.w3.org/2000/svg"><path d="M71.206 87.188h-.029a1.875 1.875 0 000 3.75h.029a1.875 1.875 0 000-3.75z" fill="#fff"/><path d="M94.125 34.688H73.902l-20.27-20.27c.474-.89.743-1.904.743-2.98A6.382 6.382 0 0048 5.061a6.382 6.382 0 00-6.375 6.375c0 1.077.27 2.091.742 2.982L22.098 34.688H1.875C.84 34.688 0 35.526 0 36.562v52.5c0 1.036.84 1.876 1.875 1.876h61.791a1.875 1.875 0 000-3.75H3.75v-48.75h88.5v48.75H78.716a1.875 1.875 0 000 3.75h15.409c1.035 0 1.875-.84 1.875-1.876v-52.5c0-1.035-.84-1.874-1.875-1.874zM48 8.811a2.628 2.628 0 012.625 2.626A2.628 2.628 0 0148 14.062a2.628 2.628 0 01-2.625-2.624A2.628 2.628 0 0148 8.812zM27.402 34.689L45.019 17.07c.89.473 1.905.742 2.981.742 1.076 0 2.09-.269 2.981-.742l17.617 17.617H27.402z" fill="#FFC700"/><path d="M86.625 49.687A5.631 5.631 0 0181 44.062c0-1.035-.84-1.875-1.875-1.875h-23a1.875 1.875 0 000 3.75h21.314a9.405 9.405 0 007.311 7.312v19.127a9.404 9.404 0 00-7.311 7.311H18.56a9.404 9.404 0 00-7.311-7.311V53.249a9.404 9.404 0 007.311-7.312H39.47a1.875 1.875 0 000-3.75H16.875c-1.036 0-1.875.84-1.875 1.875a5.631 5.631 0 01-5.625 5.625c-1.036 0-1.875.84-1.875 1.875v22.5c0 1.036.84 1.876 1.875 1.876A5.631 5.631 0 0115 81.561c0 1.036.84 1.876 1.875 1.876h62.25c1.035 0 1.875-.84 1.875-1.876a5.631 5.631 0 015.625-5.624c1.035 0 1.875-.84 1.875-1.876v-22.5c0-1.035-.84-1.875-1.875-1.875z" fill="#FFC700"/><path d="M49.325 42.737a1.88 1.88 0 00-1.325-.55c-.493 0-.977.201-1.326.55-.348.349-.549.832-.549 1.325 0 .494.2.977.55 1.326.348.349.832.55 1.325.55s.977-.201 1.325-.55a1.89 1.89 0 00.55-1.325c0-.494-.2-.977-.55-1.326zM27.37 53.438a6.465 6.465 0 00-6.458 6.457v5.835a6.465 6.465 0 006.458 6.457 6.465 6.465 0 006.457-6.457v-5.835a6.465 6.465 0 00-6.457-6.458zm2.707 12.292a2.71 2.71 0 01-2.707 2.707 2.71 2.71 0 01-2.708-2.707v-5.835a2.71 2.71 0 012.708-2.708 2.71 2.71 0 012.707 2.708v5.835zM43.54 53.437h-5.15c-1.035 0-1.874.84-1.874 1.875v15a1.875 1.875 0 003.75 0v-5.625h3.274a5.257 5.257 0 005.25-5.25v-.75a5.257 5.257 0 00-5.25-5.25zm1.5 6c0 .827-.673 1.5-1.5 1.5h-3.274v-3.75h3.274c.827 0 1.5.673 1.5 1.5v.75zM58.569 68.436h-4.026a.067.067 0 01-.068-.067v-3.682h2.2a1.875 1.875 0 000-3.75h-2.2v-3.681c0-.037.03-.067.068-.067h4.026a1.875 1.875 0 000-3.75h-4.026a3.821 3.821 0 00-3.818 3.817v11.113a3.821 3.821 0 003.818 3.817h4.026a1.875 1.875 0 000-3.75zM73.213 53.437c-1.035 0-1.875.84-1.875 1.875v7.932l-5.056-8.86a1.876 1.876 0 00-3.504.928v15a1.875 1.875 0 003.75 0v-7.931l5.056 8.86a1.875 1.875 0 003.504-.929v-15c0-1.035-.84-1.875-1.875-1.875z" fill="#fff"/></svg><svg fill="none" viewBox="0 0 32 32" id="phone" xmlns="http://www.w3.org/2000/svg"><path d="M27.614 16.168h-1.632c0-5.327-4.332-9.657-9.655-9.657V4.88c6.225-.004 11.287 5.061 11.287 11.287zM16.326 7.696v1.63c3.774 0 6.84 3.069 6.838 6.84h1.632c0-4.67-3.797-8.47-8.47-8.47zM16 0C7.177 0 0 7.177 0 16.001 0 24.823 7.177 32 16 32a.987.987 0 000-1.975c-7.735 0-14.026-6.293-14.026-14.024C1.974 8.266 8.265 1.974 16 1.974c7.735 0 14.025 6.293 14.025 14.027 0 3.232-1.72 6.434-4.182 7.792a6.045 6.045 0 01-2.898.745 4.637 4.637 0 001.558-1.497c.078-.12.182-.224.233-.352.322-.773.35-1.65.544-2.467.238-1.042-4.563-3.079-4.98-1.777-.151.482-.383 2.006-.685 2.408-.27.358-.934.188-1.35-.165-1.093-.932-2.315-2.303-3.387-3.386l.002-.001-.09-.09-.09-.09v.002c-1.084-1.074-2.456-2.293-3.387-3.389-.353-.415-.524-1.08-.165-1.349.402-.304 1.926-.532 2.408-.684 1.299-.416-.735-5.22-1.78-4.98-.814.19-1.69.222-2.464.54-.131.057-.233.158-.351.236-2.742 1.738-3.096 5.958-.42 9.102a74.109 74.109 0 003.18 3.504l-.007.003.093.089c.03.03.058.06.086.093l.006-.006c1.137 1.095 2.484 2.709 4.672 4.168 4.607 3.077 8.143 2.218 10.225 1.076C30.392 23.546 32 19.317 32 16.005 32 7.177 24.822 0 16 0z" fill="#FFC700"/></svg><svg fill="none" viewBox="0 0 96 96" id="shopping-bag" xmlns="http://www.w3.org/2000/svg"><g clip-path="url(#lclip0)"><path d="M73.62 46.674a1.888 1.888 0 00-1.326-.549c-.493 0-.976.2-1.325.55a1.89 1.89 0 00-.55 1.325c0 .493.201.977.55 1.325.349.35.832.55 1.325.55.494 0 .977-.2 1.326-.55.349-.348.55-.832.55-1.325s-.201-.977-.55-1.326z" fill="#fff"/><path d="M94.125 19.69H81.678v-.565C81.678 8.579 73.098 0 62.553 0a19.01 19.01 0 00-8.326 1.91A19.01 19.01 0 0045.9 0C35.354 0 26.775 8.58 26.775 19.125v.565H11.997c-1.035 0-1.875.84-1.875 1.875v30.243a1.875 1.875 0 00-1.375 1.423L.041 93.73A1.876 1.876 0 001.875 96h77.928c.531 0 1.01-.222 1.35-.576l5.81-5.81 5.833 5.834A1.875 1.875 0 0096 94.122V21.565c0-1.036-.839-1.875-1.874-1.875zM54.227 6.21c4.236 2.741 7.048 7.504 7.048 12.915v.565H47.178v-.565c0-5.41 2.812-10.174 7.049-12.915zM45.9 3.75c1.547 0 3.041.232 4.451.66-4.227 3.51-6.923 8.803-6.923 14.715v.565H30.525v-.565c0-8.478 6.897-15.375 15.375-15.375zm-33.903 88.5H4.195l7.9-36.75h6.564v.938a1.875 1.875 0 003.75 0V55.5H42.28v.938a1.875 1.875 0 003.75 0V55.5h6.563l7.9 36.75H11.997zm10.412-40.5v-2.259c0-5.479 4.457-9.936 9.936-9.936 5.478 0 9.936 4.457 9.936 9.936v2.259H22.409zm41.92 40.5l-8.386-39.02a1.875 1.875 0 00-1.834-1.48h-8.078v-2.259c0-7.546-6.14-13.686-13.686-13.686s-13.686 6.14-13.686 13.686v2.259h-4.787V23.44h12.903v3.035a1.875 1.875 0 003.75 0V23.44h30.75v3.035a1.875 1.875 0 003.75 0V23.44h5.394v17.542a1.875 1.875 0 003.75 0V23.44h3.76v68.81h-13.6zm13.6-72.56H65.024v-.565c0-5.912-2.696-11.205-6.923-14.716a15.32 15.32 0 014.451-.659c8.478 0 15.375 6.897 15.375 15.375v.565zm14.32 69.908l-3.444-3.444c.02-.11.032-.224.032-.341V65.205a1.875 1.875 0 00-3.75 0v20.608c0 .117.013.23.033.341l-3.442 3.442V23.44H92.25v66.158z" fill="#FFC700"/><path d="M37.608 64.085a1.875 1.875 0 00-2.555.71L24.001 84.373a1.875 1.875 0 103.266 1.844l11.052-19.577c.509-.902.19-2.045-.712-2.554zM39.916 77.123a5.631 5.631 0 00-5.625 5.624 5.631 5.631 0 005.625 5.626 5.631 5.631 0 005.625-5.626 5.631 5.631 0 00-5.625-5.624zm0 7.5a1.877 1.877 0 01-1.875-1.876c0-1.033.841-1.874 1.875-1.874s1.875.84 1.875 1.874a1.877 1.877 0 01-1.875 1.876zM24.802 60.53a5.631 5.631 0 00-5.625 5.626 5.631 5.631 0 005.625 5.625 5.631 5.631 0 005.625-5.625 5.631 5.631 0 00-5.625-5.625zm0 7.5a1.877 1.877 0 01-1.875-1.874c0-1.034.841-1.875 1.875-1.875s1.875.84 1.875 1.875a1.877 1.877 0 01-1.875 1.875zM88.288 56.861a1.89 1.89 0 00-1.326-.549c-.493 0-.977.2-1.325.55a1.89 1.89 0 00-.55 1.325c0 .493.201.977.55 1.326.349.348.832.55 1.325.55s.977-.202 1.326-.55c.35-.35.55-.833.55-1.326 0-.493-.2-.977-.55-1.326z" fill="#fff"/></g><defs><clipPath id="lclip0"><path fill="#fff" d="M0 0h96v96H0z"/></clipPath></defs></svg><svg fill="none" viewBox="0 0 96 96" id="shopping-cart" xmlns="http://www.w3.org/2000/svg"><g clip-path="url(#mclip0)"><path d="M31.36 37.125c-1.035 0-1.875.84-1.875 1.875v23.625a1.875 1.875 0 003.75 0V39c0-1.035-.84-1.875-1.875-1.875zM46.36 37.125c-1.035 0-1.875.84-1.875 1.875v23.625a1.875 1.875 0 003.75 0V39c0-1.035-.84-1.875-1.875-1.875zM61.36 37.125c-1.035 0-1.875.84-1.875 1.875v23.625a1.875 1.875 0 003.75 0V39c0-1.035-.84-1.875-1.875-1.875zM76.36 37.125c-1.035 0-1.875.84-1.875 1.875v23.625a1.875 1.875 0 003.75 0V39c0-1.035-.84-1.875-1.875-1.875z" fill="#fff"/><path d="M88.47 71.236l7.5-40.9a1.875 1.875 0 00-1.844-2.213h-8.25V12c0-1.035-.84-1.875-1.875-1.875H49.876v-8.25C49.876.84 49.036 0 48 0H28.5c-1.036 0-1.875.84-1.875 1.875v26.247h-9.95l-2.827-16.44A1.875 1.875 0 0012 10.125H1.876c-1.035 0-1.875.84-1.875 1.875v7.5c0 1.035.84 1.875 1.875 1.875h9.834l8.54 49.683v2.44c0 5.434 4.148 9.916 9.443 10.449a7.827 7.827 0 00-1.204 4.178c0 4.342 3.533 7.875 7.875 7.875 4.342 0 7.875-3.533 7.875-7.875A7.826 7.826 0 0043.069 84h22.614a7.827 7.827 0 00-1.17 4.125c0 4.342 3.532 7.875 7.874 7.875 4.343 0 7.875-3.533 7.875-7.875A7.826 7.826 0 0079.092 84h7.534a1.875 1.875 0 000-3.75H30.752a6.759 6.759 0 01-6.751-6.751v-.726h62.625c.905 0 1.68-.647 1.844-1.537zM3.751 17.625v-3.75h6.67l.644 3.75H3.751zM72.388 84a4.13 4.13 0 014.125 4.125 4.13 4.13 0 01-4.125 4.125 4.13 4.13 0 01-4.125-4.125A4.13 4.13 0 0172.388 84zm-36.024 0a4.13 4.13 0 014.125 4.125 4.13 4.13 0 01-4.125 4.125 4.13 4.13 0 01-4.125-4.125A4.13 4.13 0 0136.364 84zM49.9 21.375H66.19a1.875 1.875 0 000-3.75H49.9v-3.75h32.226v14.247H49.9v-6.747zM30.376 3.75h15.75v24.372h-15.75V3.75zm54.687 65.273H23.706l-6.386-37.15h74.556l-6.813 37.15z" fill="#FFC700"/><path d="M77.096 18.174a1.896 1.896 0 00-1.326-.55c-.493 0-.976.201-1.327.55a1.888 1.888 0 00-.547 1.326c0 .493.198.977.547 1.325.35.35.835.55 1.328.55.49 0 .975-.2 1.325-.55.349-.348.55-.832.55-1.325s-.2-.977-.55-1.326z" fill="#fff"/></g><defs><clipPath id="mclip0"><path fill="#fff" d="M0 0h96v96H0z"/></clipPath></defs></svg><svg fill="none" viewBox="0 0 40 40" id="usb" xmlns="http://www.w3.org/2000/svg"><path d="M34.417 15.815L40 10.233 29.767 0l-5.582 5.582-.93-.93a.658.658 0 00-.93 0L6.511 20.466c-.77.77-.77 2.02 0 2.79l1.86 1.86-1.395 1.396c-.77.77-.771 2.02 0 2.79v.001l.465.465L0 37.21 2.79 40l7.442-7.44.465.464c.77.771 2.02.771 2.79 0h.001l1.395-1.395 1.86 1.86a1.973 1.973 0 002.791 0l15.814-15.813a.658.658 0 000-.93l-.93-.931zM2.79 38.14l-.93-.93 6.512-6.512.93.93L2.79 38.14zm9.767-6.046a.673.673 0 01-.93 0l-.465-.465-3.256-3.256a.658.658 0 010-.93l1.395-1.396 4.652 4.651-1.396 1.396zM29.767 1.86l8.372 8.372-4.65 4.652-8.374-8.373 4.652-4.65zM18.604 32.56a.658.658 0 01-.93 0L7.44 22.327a.658.658 0 010-.93v-.001L22.79 6.047 33.952 17.21 18.604 32.56z" fill="#FFC700"/><path d="M29.301 3.257l-2.79 2.79 2.79 2.79 2.791-2.79-2.79-2.79zm-.93 2.79l.93-.93.931.93-.93.93-.93-.93zM36.743 10.698l-2.79-2.79-2.79 2.79 2.79 2.791 2.79-2.79zm-2.79-.93l.93.93-.93.93-.93-.93.93-.93zM26.261 16.96l1.18-4.4-4.402 1.179 1.146 1.145-7.01 7.01V19.28l1.74-1.74a1.316 1.316 0 10-1.003-.856l-2.052 2.051v4.473l-.98.98a1.316 1.316 0 10.93.93l2.295-2.293h4.611l1.915-1.913.484.485 1.861-1.86-1.86-1.86-1.861 1.86.445.445-1.526 1.528h-2.753l5.694-5.694 1.146 1.145z" fill="#FFC700"/></svg><svg fill="none" viewBox="0 0 32 32" id="vk" xmlns="http://www.w3.org/2000/svg"><path d="M16 32c8.837 0 16-7.163 16-16S24.837 0 16 0 0 7.163 0 16s7.163 16 16 16z" fill="#4D76A1"/><path fill-rule="evenodd" clip-rule="evenodd" d="M15.396 23.017h1.255s.38-.041.573-.25c.179-.191.173-.552.173-.552s-.025-1.684.758-1.933c.77-.244 1.76 1.629 2.81 2.35.793.544 1.396.425 1.396.425l2.806-.04s1.467-.09.772-1.244c-.058-.094-.406-.854-2.087-2.414-1.759-1.633-1.523-1.368.596-4.193 1.29-1.72 1.807-2.77 1.645-3.22-.153-.428-1.102-.315-1.102-.315l-3.16.02s-.234-.032-.407.072c-.17.101-.28.339-.28.339s-.5 1.33-1.166 2.463c-1.407 2.388-1.97 2.514-2.2 2.366-.534-.346-.4-1.389-.4-2.13 0-2.314.35-3.28-.684-3.53-.343-.082-.596-.137-1.474-.146-1.128-.012-2.082.003-2.622.268-.36.176-.636.568-.468.59.21.029.682.128.933.47.323.44.312 1.43.312 1.43s.186 2.724-.434 3.063c-.426.232-1.01-.242-2.264-2.41-.643-1.11-1.128-2.336-1.128-2.336s-.094-.23-.26-.352c-.203-.149-.486-.196-.486-.196l-3.002.02s-.45.012-.616.208c-.147.174-.012.535-.012.535s2.35 5.498 5.012 8.269c2.44 2.54 5.21 2.373 5.21 2.373z" fill="#fff"/></svg></svg>