<svg width="50" height="951" fill="none" xmlns="http://www.w3.org/2000/svg"><path fill="#1A1A1F" d="M15.577 950.5v-1H49.5v1zM.5 924.5v-1h33.923v1zm15.077-25v-1H49.5v1zM.5 873.5v-1h33.923v1zm15.077-26v-1H49.5v1zM.5 822.5v-1h33.923v1zm15.077-26v-1H49.5v1zM.5 771.5v-1h33.923v1zm15.077-26v-1H49.5v1zM.5 719.5v-1h33.923v1zm15.077-25v-1H49.5v1zM.5 668.5v-1h33.923v1zm15.077-26v-1H49.5v1zM.5 617.5v-1h33.923v1zm15.077-26v-1H49.5v1zM.5 565.5v-1h33.923v1zm15.077-25v-1H49.5v1zM.5 514.5v-1h33.923v1zm15.077-26v-1H49.5v1zM.5 463.5v-1h33.923v1zm15.077-26v-1H49.5v1zM.5 412.5v-1h33.923v1zm15.077-26v-1H49.5v1zM.5 360.5v-1h33.923v1zm15.077-25v-1H49.5v1zM.5 309.5v-1h33.923v1zm15.077-26v-1H49.5v1zM.5 258.5v-1h33.923v1zm15.077-26v-1H49.5v1zM.5 206.5v-1h33.923v1zm15.077-25v-1H49.5v1zM.5 155.5v-1h33.923v1zm15.077-25v-1H49.5v1zM.5 104.5v-1h33.923v1zm15.077-26v-1H49.5v1zM.5 53.5v-1h33.923v1zm15.077-26v-1H49.5v1zM.5 1.5v-1h33.923v1z"/></svg>