<svg width="40" height="40" viewBox="0 0 40 40" fill="none" xmlns="http://www.w3.org/2000/svg">
<path d="M19.9994 0.5C12.1563 0.5 5.7738 6.88241 5.7738 14.7264C5.7738 16.7748 6.19277 18.726 7.01642 20.5296C10.666 28.5158 17.6824 36.9752 19.7579 39.3891L19.3788 39.7151L19.7576 39.3887C19.8181 39.4589 19.9066 39.4996 19.9998 39.4996C20.093 39.4996 20.1815 39.4589 20.242 39.3887L20.6208 39.7151L20.2416 39.3891C22.3164 36.9756 29.3327 28.5166 32.9835 20.5297C33.8076 18.7261 34.2262 16.775 34.2262 14.7264L19.9994 0.5ZM19.9994 0.5C27.8429 0.5 34.2254 6.88239 34.2262 14.7264L19.9994 0.5ZM19.9994 22.8753C15.5056 22.8753 11.85 19.2198 11.85 14.726C11.85 10.2318 15.5056 6.57623 19.9994 6.57623C24.4932 6.57623 28.1487 10.2318 28.1487 14.7259L19.9994 22.8753ZM19.9994 22.8753C24.4935 22.8753 28.1491 19.2198 28.1487 14.726L19.9994 22.8753Z" fill="#FFC700" stroke="#1A1A1F"/>
</svg>
