<svg width="82" height="81" viewBox="0 0 82 81" fill="none" xmlns="http://www.w3.org/2000/svg">
<path d="M38.5 45V32.5L74 31.5L75.5 70.5H81V73.2537L75.5 74L35.5 76.5V80L28 79.5V76.5L0.5 77.5V75L44.5 72V59H33.5V65H28V55.5H35V51H38.5V45Z" fill="white" stroke="#1A1A1F"/>
<path d="M56.9994 0.5C49.1563 0.5 42.7738 6.88241 42.7738 14.7264C42.7738 16.7748 43.1928 18.726 44.0164 20.5296C47.666 28.5158 54.6824 36.9752 56.7579 39.3891L56.3788 39.7151L56.7576 39.3887C56.8181 39.4589 56.9066 39.4996 56.9998 39.4996C57.093 39.4996 57.1815 39.4589 57.242 39.3887L57.6208 39.7151L57.2416 39.3891C59.3164 36.9756 66.3327 28.5166 69.9835 20.5297C70.8076 18.7261 71.2262 16.775 71.2262 14.7264L56.9994 0.5ZM56.9994 0.5C64.8429 0.5 71.2254 6.88239 71.2262 14.7264L56.9994 0.5ZM56.9994 22.8753C52.5056 22.8753 48.85 19.2198 48.85 14.726C48.85 10.2318 52.5056 6.57623 56.9994 6.57623C61.4932 6.57623 65.1487 10.2318 65.1487 14.7259L56.9994 22.8753ZM56.9994 22.8753C61.4935 22.8753 65.1491 19.2198 65.1487 14.726L56.9994 22.8753Z" fill="#FFC700" stroke="#1A1A1F"/>
</svg>
