<svg width="950" height="49" viewBox="0 0 950 49" fill="none" xmlns="http://www.w3.org/2000/svg">
<rect y="15.0769" width="1" height="33.9231" fill="#1A1A1F"/>
<rect x="26" width="1" height="33.9231" fill="#1A1A1F"/>
<rect x="51" y="15.0769" width="1" height="33.9231" fill="#1A1A1F"/>
<rect x="77" width="1" height="33.9231" fill="#1A1A1F"/>
<rect x="103" y="15.0769" width="1" height="33.9231" fill="#1A1A1F"/>
<rect x="128" width="1" height="33.9231" fill="#1A1A1F"/>
<rect x="154" y="15.0769" width="1" height="33.9231" fill="#1A1A1F"/>
<rect x="179" width="1" height="33.9231" fill="#1A1A1F"/>
<rect x="205" y="15.0769" width="1" height="33.9231" fill="#1A1A1F"/>
<rect x="231" width="1" height="33.9231" fill="#1A1A1F"/>
<rect x="256" y="15.0769" width="1" height="33.9231" fill="#1A1A1F"/>
<rect x="282" width="1" height="33.9231" fill="#1A1A1F"/>
<rect x="308" y="15.0769" width="1" height="33.9231" fill="#1A1A1F"/>
<rect x="333" width="1" height="33.9231" fill="#1A1A1F"/>
<rect x="359" y="15.0769" width="1" height="33.9231" fill="#1A1A1F"/>
<rect x="385" width="1" height="33.9231" fill="#1A1A1F"/>
<rect x="410" y="15.0769" width="1" height="33.9231" fill="#1A1A1F"/>
<rect x="436" width="1" height="33.9231" fill="#1A1A1F"/>
<rect x="462" y="15.0769" width="1" height="33.9231" fill="#1A1A1F"/>
<rect x="487" width="1" height="33.9231" fill="#1A1A1F"/>
<rect x="513" y="15.0769" width="1" height="33.9231" fill="#1A1A1F"/>
<rect x="538" width="1" height="33.9231" fill="#1A1A1F"/>
<rect x="564" y="15.0769" width="1" height="33.9231" fill="#1A1A1F"/>
<rect x="590" width="1" height="33.9231" fill="#1A1A1F"/>
<rect x="615" y="15.0769" width="1" height="33.9231" fill="#1A1A1F"/>
<rect x="641" width="1" height="33.9231" fill="#1A1A1F"/>
<rect x="667" y="15.0769" width="1" height="33.9231" fill="#1A1A1F"/>
<rect x="692" width="1" height="33.9231" fill="#1A1A1F"/>
<rect x="718" y="15.0769" width="1" height="33.9231" fill="#1A1A1F"/>
<rect x="744" width="1" height="33.9231" fill="#1A1A1F"/>
<rect x="769" y="15.0769" width="1" height="33.9231" fill="#1A1A1F"/>
<rect x="795" width="1" height="33.9231" fill="#1A1A1F"/>
<rect x="820" y="15.0769" width="1" height="33.9231" fill="#1A1A1F"/>
<rect x="846" width="1" height="33.9231" fill="#1A1A1F"/>
<rect x="872" y="15.0769" width="1" height="33.9231" fill="#1A1A1F"/>
<rect x="897" width="1" height="33.9231" fill="#1A1A1F"/>
<rect x="923" y="15.0769" width="1" height="33.9231" fill="#1A1A1F"/>
<rect x="949" width="1" height="33.9231" fill="#1A1A1F"/>
</svg>
