<svg width="50" height="951" viewBox="0 0 50 951" fill="none" xmlns="http://www.w3.org/2000/svg">
<rect x="15.577" y="950.5" width="1" height="33.9231" transform="rotate(-90 15.577 950.5)" fill="#1A1A1F"/>
<rect x="0.500061" y="924.5" width="1" height="33.9231" transform="rotate(-90 0.500061 924.5)" fill="#1A1A1F"/>
<rect x="15.577" y="899.5" width="1" height="33.9231" transform="rotate(-90 15.577 899.5)" fill="#1A1A1F"/>
<rect x="0.500061" y="873.5" width="1" height="33.9231" transform="rotate(-90 0.500061 873.5)" fill="#1A1A1F"/>
<rect x="15.577" y="847.5" width="1" height="33.9231" transform="rotate(-90 15.577 847.5)" fill="#1A1A1F"/>
<rect x="0.500061" y="822.5" width="1" height="33.9231" transform="rotate(-90 0.500061 822.5)" fill="#1A1A1F"/>
<rect x="15.577" y="796.5" width="1" height="33.9231" transform="rotate(-90 15.577 796.5)" fill="#1A1A1F"/>
<rect x="0.500061" y="771.5" width="1" height="33.9231" transform="rotate(-90 0.500061 771.5)" fill="#1A1A1F"/>
<rect x="15.577" y="745.5" width="1" height="33.9231" transform="rotate(-90 15.577 745.5)" fill="#1A1A1F"/>
<rect x="0.500061" y="719.5" width="1" height="33.9231" transform="rotate(-90 0.500061 719.5)" fill="#1A1A1F"/>
<rect x="15.577" y="694.5" width="1" height="33.9231" transform="rotate(-90 15.577 694.5)" fill="#1A1A1F"/>
<rect x="0.500061" y="668.5" width="1" height="33.9231" transform="rotate(-90 0.500061 668.5)" fill="#1A1A1F"/>
<rect x="15.577" y="642.5" width="1" height="33.9231" transform="rotate(-90 15.577 642.5)" fill="#1A1A1F"/>
<rect x="0.500061" y="617.5" width="1" height="33.9231" transform="rotate(-90 0.500061 617.5)" fill="#1A1A1F"/>
<rect x="15.577" y="591.5" width="1" height="33.9231" transform="rotate(-90 15.577 591.5)" fill="#1A1A1F"/>
<rect x="0.500031" y="565.5" width="1" height="33.9231" transform="rotate(-90 0.500031 565.5)" fill="#1A1A1F"/>
<rect x="15.577" y="540.5" width="1" height="33.9231" transform="rotate(-90 15.577 540.5)" fill="#1A1A1F"/>
<rect x="0.500031" y="514.5" width="1" height="33.9231" transform="rotate(-90 0.500031 514.5)" fill="#1A1A1F"/>
<rect x="15.577" y="488.5" width="1" height="33.9231" transform="rotate(-90 15.577 488.5)" fill="#1A1A1F"/>
<rect x="0.500031" y="463.5" width="1" height="33.9231" transform="rotate(-90 0.500031 463.5)" fill="#1A1A1F"/>
<rect x="15.577" y="437.5" width="1" height="33.9231" transform="rotate(-90 15.577 437.5)" fill="#1A1A1F"/>
<rect x="0.500031" y="412.5" width="1" height="33.9231" transform="rotate(-90 0.500031 412.5)" fill="#1A1A1F"/>
<rect x="15.577" y="386.5" width="1" height="33.9231" transform="rotate(-90 15.577 386.5)" fill="#1A1A1F"/>
<rect x="0.500031" y="360.5" width="1" height="33.9231" transform="rotate(-90 0.500031 360.5)" fill="#1A1A1F"/>
<rect x="15.577" y="335.5" width="1" height="33.9231" transform="rotate(-90 15.577 335.5)" fill="#1A1A1F"/>
<rect x="0.500031" y="309.5" width="1" height="33.9231" transform="rotate(-90 0.500031 309.5)" fill="#1A1A1F"/>
<rect x="15.577" y="283.5" width="1" height="33.9231" transform="rotate(-90 15.577 283.5)" fill="#1A1A1F"/>
<rect x="0.500031" y="258.5" width="1" height="33.9231" transform="rotate(-90 0.500031 258.5)" fill="#1A1A1F"/>
<rect x="15.577" y="232.5" width="1" height="33.9231" transform="rotate(-90 15.577 232.5)" fill="#1A1A1F"/>
<rect x="0.500031" y="206.5" width="1" height="33.9231" transform="rotate(-90 0.500031 206.5)" fill="#1A1A1F"/>
<rect x="15.577" y="181.5" width="1" height="33.9231" transform="rotate(-90 15.577 181.5)" fill="#1A1A1F"/>
<rect x="0.500031" y="155.5" width="1" height="33.9231" transform="rotate(-90 0.500031 155.5)" fill="#1A1A1F"/>
<rect x="15.5769" y="130.5" width="1" height="33.9231" transform="rotate(-90 15.5769 130.5)" fill="#1A1A1F"/>
<rect x="0.500031" y="104.5" width="1" height="33.9231" transform="rotate(-90 0.500031 104.5)" fill="#1A1A1F"/>
<rect x="15.5769" y="78.5" width="1" height="33.9231" transform="rotate(-90 15.5769 78.5)" fill="#1A1A1F"/>
<rect x="0.500031" y="53.5" width="1" height="33.9231" transform="rotate(-90 0.500031 53.5)" fill="#1A1A1F"/>
<rect x="15.5769" y="27.5" width="1" height="33.9231" transform="rotate(-90 15.5769 27.5)" fill="#1A1A1F"/>
<rect x="0.500031" y="1.5" width="1" height="33.9231" transform="rotate(-90 0.500031 1.5)" fill="#1A1A1F"/>
</svg>
