<svg width="40" height="40" viewBox="0 0 40 40" fill="none" xmlns="http://www.w3.org/2000/svg">
<path d="M29.6969 39.9999H10.303C8.6327 39.9999 7.27271 38.6411 7.27271 36.9696V7.87869C7.27271 6.20718 8.6327 4.84839 10.303 4.84839H29.6969C31.3672 4.84839 32.7272 6.20718 32.7272 7.87869V36.9696C32.7272 38.6411 31.3672 39.9999 29.6969 39.9999ZM10.303 6.06051C9.30058 6.06051 8.48483 6.87627 8.48483 7.87869V36.9696C8.48483 37.972 9.30058 38.7878 10.303 38.7878H29.6969C30.6994 38.7878 31.5151 37.972 31.5151 36.9696V7.87869C31.5151 6.87627 30.6994 6.06051 29.6969 6.06051H10.303Z" fill="#FFC700"/>
<path d="M23.9393 6.06061H16.0605C15.726 6.06061 15.4545 5.78909 15.4545 5.45455V0.606061C15.4545 0.271515 15.726 0 16.0605 0H23.9393C24.2739 0 24.5454 0.271515 24.5454 0.606061V5.45455C24.5454 5.78909 24.2739 6.06061 23.9393 6.06061ZM16.6666 4.84848H23.3333V1.21212H16.6666V4.84848Z" fill="#FFC700"/>
<path d="M16.2873 32.2035C16.1831 32.2035 16.0776 32.1768 15.9831 32.1211C15.7297 31.9732 15.6194 31.6665 15.7188 31.3902L18.5928 23.4847L15.3055 22.5477C15.1079 22.492 14.9515 22.3392 14.8922 22.1429C14.8315 21.9465 14.8752 21.732 15.0085 21.5744L22.3455 12.8605C22.5297 12.6411 22.8425 12.5829 23.0946 12.7162C23.3467 12.8508 23.4715 13.1453 23.3915 13.4192L21.3649 20.4483L24.6946 21.3974C24.8934 21.4532 25.0485 21.6071 25.1091 21.8047C25.1685 22.0023 25.1237 22.218 24.9891 22.3744L16.7503 31.9938C16.6291 32.1308 16.4606 32.2035 16.2873 32.2035ZM16.5382 21.6386L19.5503 22.498C19.7115 22.5441 19.8473 22.6556 19.9237 22.8047C20 22.955 20.0109 23.1296 19.9528 23.2871L17.9952 28.6702L23.4497 22.3029L20.4449 21.4459C20.2909 21.4023 20.1588 21.298 20.0812 21.1574C20.0037 21.0168 19.9843 20.8508 20.0291 20.6956L21.4352 15.8205L16.5382 21.6386Z" fill="#FFC700"/>
</svg>
