<svg width="24" height="24" viewBox="0 0 24 24" fill="none" xmlns="http://www.w3.org/2000/svg">
<g clip-path="url(#clip0)">
<path d="M23.7159 0.283957C23.3372 -0.0946523 22.7234 -0.0946523 22.3448 0.283957L0.283747 22.345C-0.0948622 22.7236 -0.0948622 23.3374 0.283747 23.716C0.473029 23.9054 0.721185 24 0.969294 24C1.2174 24 1.46551 23.9053 1.65484 23.716L23.7159 1.65496C24.0944 1.27639 24.0944 0.662566 23.7159 0.283957Z" fill="#626266"/>
<path d="M23.7158 22.345L1.65475 0.283957C1.27618 -0.0946523 0.66231 -0.0946523 0.283747 0.283957C-0.0948622 0.662519 -0.0948622 1.27635 0.283747 1.65496L22.3448 23.716C22.5341 23.9053 22.7823 24 23.0304 24C23.2785 24 23.5266 23.9053 23.7159 23.7161C24.0944 23.3374 24.0944 22.7236 23.7158 22.345Z" fill="#626266"/>
</g>
<defs>
<clipPath id="clip0">
<rect width="24" height="24" fill="white"/>
</clipPath>
</defs>
</svg>
