<svg width="96" height="96" viewBox="0 0 96 96" fill="none" xmlns="http://www.w3.org/2000/svg">
<path d="M96 69.9381V53.2477C96 52.7505 95.8024 52.2735 95.4506 51.9219L79.3121 35.7863C78.6039 35.0781 77.6621 34.6881 76.6605 34.6881H67.5V30.7913C67.5 26.6558 64.1355 23.2913 60 23.2913H38.9244C39.2177 22.1379 39.3748 20.9308 39.3748 19.6875C39.3748 11.6231 32.8142 5.0625 24.7498 5.0625C16.6854 5.0625 10.1248 11.6231 10.1248 19.6875C10.1248 20.9753 10.2937 22.224 10.6078 23.4144C7.11244 24.0504 4.45312 27.1151 4.45312 30.7913V69.9381C4.45312 74.0736 7.81763 77.4381 11.9531 77.4381H16.8894C15.9353 78.8257 15.375 80.5046 15.375 82.3125C15.375 84.1206 15.9353 85.7996 16.89 87.1875H1.875C0.839625 87.1875 0 88.0271 0 89.0625C0 90.0979 0.839625 90.9375 1.875 90.9375H35.574C36.6094 90.9375 37.449 90.0979 37.449 89.0625C37.449 88.0271 36.6094 87.1875 35.574 87.1875H31.11C32.0646 85.7996 32.625 84.1206 32.625 82.3125C32.625 80.5046 32.0648 78.8257 31.1106 77.4381H66.3896C65.4352 78.8257 64.875 80.5046 64.875 82.3125C64.875 84.1206 65.4352 85.7994 66.3898 87.1873H49.1874C48.1521 87.1873 47.3124 88.0269 47.3124 89.0623C47.3124 90.0977 48.1521 90.9373 49.1874 90.9373H94.125C95.1604 90.9373 96 90.0977 96 89.0623C96 88.0269 95.1604 87.1873 94.125 87.1873H80.6102C81.5648 85.7994 82.125 84.1206 82.125 82.3125C82.125 80.5046 81.5648 78.8257 80.6104 77.4381H88.5C92.6355 77.4381 96 74.0736 96 69.9381ZM24.7498 8.8125C30.7462 8.8125 35.6248 13.6911 35.6248 19.6875C35.6248 25.6839 30.7462 30.5625 24.7498 30.5625C18.7534 30.5625 13.8748 25.6839 13.8748 19.6875C13.8748 13.6911 18.7534 8.8125 24.7498 8.8125ZM24 87.1875C21.3118 87.1875 19.125 85.0007 19.125 82.3125C19.125 79.6316 21.3002 77.4499 23.9784 77.4381H24.0217C26.6998 77.4499 28.875 79.6316 28.875 82.3125C28.875 85.0007 26.6882 87.1875 24 87.1875ZM63.75 32.25H48.375C47.3396 32.25 46.5 33.0896 46.5 34.125C46.5 35.1604 47.3396 36 48.375 36H63.75V69.9381C63.75 72.0058 62.0677 73.6881 60 73.6881H11.9531C9.88538 73.6881 8.20312 72.0058 8.20312 69.9381V69.9375V54.9375H15.3186L13.3288 56.9272C12.5966 57.6594 12.5966 58.8467 13.3288 59.5791C13.695 59.9451 14.1748 60.1283 14.6546 60.1283C15.1344 60.1283 15.6142 59.9451 15.9804 59.5791L21.1712 54.3883C21.9034 53.6561 21.9034 52.4689 21.1712 51.7365L15.9804 46.5457C15.2481 45.8138 14.0612 45.8138 13.3286 46.5457C12.5964 47.2779 12.5964 48.4652 13.3286 49.1976L15.3186 51.1875H8.20312V30.7913C8.20312 28.7235 9.88538 27.0413 11.9531 27.0413H12.1161C14.6546 31.3856 19.3654 34.3125 24.7498 34.3125C30.1342 34.3125 34.845 31.3856 37.3836 27.0413H60C62.0677 27.0413 63.75 28.7235 63.75 30.7913V32.25ZM92.25 54.0246V54.9375H85.5268L89.3447 51.1196L92.25 54.0246ZM76.5986 38.4381H76.6605L82.2859 44.0623L79.674 46.6742C78.9418 47.4064 78.9418 48.5936 79.674 49.326C80.0404 49.6918 80.52 49.875 81 49.875C81.48 49.875 81.9596 49.6918 82.3258 49.3258L84.9379 46.7137L86.6925 48.4682L80.2292 54.9315C78.2169 54.8677 76.5986 53.2151 76.5986 51.1875V38.4381ZM73.5073 87.1873H73.4929C70.8081 87.1834 68.625 84.9983 68.625 82.3125C68.625 79.6316 70.8002 77.4499 73.4782 77.4381H73.5216C76.1998 77.4499 78.375 79.6316 78.375 82.3125C78.375 84.9983 76.1919 87.1834 73.5073 87.1873ZM66.4909 73.6881C67.1312 72.5841 67.5 71.3036 67.5 69.9381V38.4381H72.8486V51.1875C72.8486 55.323 76.2131 58.6875 80.3486 58.6875H92.25V69.9381C92.25 72.0058 90.5677 73.6881 88.5 73.6881H66.4909Z" fill="#FFC700"/>
<path d="M42.8223 87.1875H42.798C41.7626 87.1875 40.923 88.0271 40.923 89.0625C40.923 90.0979 41.7626 90.9375 42.798 90.9375H42.8223C43.8577 90.9375 44.6973 90.0979 44.6973 89.0625C44.6973 88.0271 43.8577 87.1875 42.8223 87.1875Z" fill="white"/>
<path d="M32.4995 56.6835H31.4565C32.9722 54.941 34.3745 52.7167 34.3745 50.451C34.3745 47.5912 32.4532 45.6699 29.5935 45.6699C26.957 45.6699 24.8124 47.8145 24.8124 50.451C24.8124 51.4864 25.652 52.326 26.6874 52.326C27.7228 52.326 28.5624 51.4864 28.5624 50.451C28.5624 49.8825 29.025 49.4199 29.5935 49.4199C30.4603 49.4199 30.6245 49.7824 30.6245 50.451C30.6245 52.619 27.2225 55.8324 25.5766 57.048C24.924 57.5282 24.6532 58.373 24.9058 59.1431C25.1585 59.913 25.877 60.4337 26.6874 60.4337H32.4995C33.5351 60.4335 34.3745 59.5939 34.3745 58.5585C34.3745 57.5231 33.5349 56.6835 32.4995 56.6835Z" fill="white"/>
<path d="M45.9894 51.2306V47.5447C45.9894 46.5094 45.1498 45.6697 44.1144 45.6697C43.079 45.6697 42.2394 46.5094 42.2394 47.5447V51.1815H40.08V47.5447C40.08 46.5094 39.2403 45.6697 38.205 45.6697C37.1696 45.6697 36.33 46.5094 36.33 47.5447V53.0565C36.33 54.0919 37.1696 54.9315 38.205 54.9315H42.2394V58.5802C42.2394 59.6156 43.079 60.4552 44.1144 60.4552C45.1498 60.4552 45.9894 59.6156 45.9894 58.5802V54.8824C46.8217 54.6909 47.4433 53.9469 47.4433 53.0565C47.4433 52.166 46.8219 51.422 45.9894 51.2306Z" fill="white"/>
<path d="M54.4477 51.2134C54.1537 51.2134 53.8662 51.2422 53.5874 51.2951V47.5449C53.5874 46.5095 52.7478 45.6699 51.7124 45.6699C50.677 45.6699 49.8374 46.5095 49.8374 47.5449V55.8234V57.02V58.5585C49.8374 59.5939 50.677 60.4335 51.7124 60.4335C52.7478 60.4335 53.5874 59.5939 53.5874 58.5585V57.02V55.8234C53.5874 55.3492 53.9735 54.9634 54.4477 54.9634C54.9218 54.9634 55.3077 55.3492 55.3077 55.8234V58.5585C55.3077 59.5939 56.1473 60.4335 57.1827 60.4335C58.2181 60.4335 59.0577 59.5939 59.0577 58.5585V55.8234C59.0577 53.2813 56.9896 51.2134 54.4477 51.2134Z" fill="white"/>
<path d="M28.8124 18.0624H26.3749V13.5649C26.3749 12.5295 25.5353 11.6899 24.4999 11.6899C23.4645 11.6899 22.6249 12.5295 22.6249 13.5649V19.9374C22.6249 20.9728 23.4645 21.8124 24.4999 21.8124H28.8124C29.8478 21.8124 30.6874 20.9728 30.6874 19.9374C30.6874 18.9021 29.8478 18.0624 28.8124 18.0624Z" fill="white"/>
<path d="M42.2004 32.7994C41.8519 32.4506 41.3681 32.25 40.875 32.25C40.3819 32.25 39.8981 32.4504 39.5494 32.7994C39.2006 33.1483 39 33.6319 39 34.125C39 34.6181 39.2004 35.1019 39.5494 35.4504C39.8981 35.7994 40.3819 36 40.875 36C41.3681 36 41.8519 35.7994 42.2004 35.4504C42.5494 35.1019 42.75 34.6181 42.75 34.125C42.75 33.6319 42.5494 33.1481 42.2004 32.7994Z" fill="white"/>
</svg>
