<svg width="40" height="40" viewBox="0 0 40 40" fill="none" xmlns="http://www.w3.org/2000/svg">
<path d="M22.7558 17.2251C22.7463 17.1996 22.7352 17.1747 22.7227 17.1506L21.1601 14.139C20.9891 13.8095 20.5835 13.6807 20.2535 13.8519C19.9238 14.0228 19.7953 14.4288 19.9664 14.7584L21.5099 17.7333C22.3303 19.9598 22.2402 22.3731 21.2549 24.5332C20.2641 26.7054 18.4863 28.3617 16.2494 29.1972C15.3398 29.5369 14.3866 29.7252 13.4159 29.757C12.4452 29.7252 11.4919 29.5369 10.5822 29.1972C8.34532 28.3618 6.56766 26.7055 5.57673 24.5332C4.59141 22.3731 4.50126 19.9598 5.32188 17.7333L13.4158 2.13266L18.9 12.7031C19.0711 13.0327 19.4768 13.1613 19.8066 12.9904C20.1363 12.8193 20.2648 12.4134 20.0939 12.0837L14.0128 0.362734C13.8971 0.139844 13.6669 0 13.4158 0C13.1646 0 12.9345 0.139844 12.8188 0.362734L4.10876 17.1506C4.09633 17.1748 4.08532 17.1996 4.07579 17.2251C3.11462 19.7985 3.21298 22.5921 4.35313 25.0913C5.49313 27.5904 7.53821 29.496 10.1116 30.457C11.1656 30.8507 12.2705 31.0677 13.3953 31.102C13.4021 31.1022 13.409 31.1023 13.4159 31.1023C13.4227 31.1023 13.4295 31.1022 13.4363 31.102C14.5612 31.0677 15.666 30.8507 16.7198 30.457C19.2933 29.496 21.3384 27.5904 22.4784 25.0913C23.6185 22.5923 23.717 19.7987 22.7558 17.2251Z" fill="#FFC700"/>
<path d="M36.2377 21.7292C36.2282 21.7038 36.2171 21.6789 36.2047 21.6548L34.6727 18.7021C34.5018 18.3725 34.0961 18.2439 33.7661 18.4148C33.4364 18.5859 33.3079 18.9917 33.4788 19.3214L34.9913 22.2366C35.7495 24.3277 34.6791 26.6522 32.5909 27.432C32.1804 27.5852 31.7506 27.6707 31.313 27.6864C30.8753 27.6708 30.4454 27.5853 30.035 27.4321C29.0173 27.0521 28.2086 26.2985 27.7579 25.3103C27.3126 24.334 27.2691 23.244 27.6347 22.2367L31.313 15.1471L32.5316 17.496C32.7028 17.8257 33.1085 17.9542 33.4383 17.7832C33.768 17.6121 33.8965 17.2063 33.7255 16.8766L31.9098 13.3771C31.7942 13.1543 31.564 13.0144 31.3129 13.0144C31.0617 13.0144 30.8316 13.1542 30.7159 13.3771L26.4213 21.6548C26.4088 21.6789 26.3977 21.7038 26.3882 21.7292C25.8824 23.0834 25.9342 24.5534 26.5341 25.8685C27.134 27.1835 28.2102 28.1862 29.5645 28.6921C30.1191 28.8991 30.7005 29.0132 31.2923 29.0314C31.2991 29.0316 31.306 29.0317 31.3129 29.0317C31.3198 29.0317 31.3266 29.0316 31.3338 29.0313C31.9255 29.0132 32.5067 28.8991 33.0615 28.6919C35.8567 27.6481 37.2816 24.5246 36.2377 21.7292Z" fill="#FFC700"/>
<path d="M27.6541 34.7566L24.7924 29.2409C24.6768 29.0181 24.4466 28.8782 24.1955 28.8782C23.9443 28.8782 23.7141 29.018 23.5986 29.2409L20.7366 34.7566C20.7241 34.7808 20.713 34.8056 20.7034 34.8311C19.9648 36.8097 20.9733 39.0206 22.952 39.7596C23.3446 39.906 23.7559 39.9868 24.1748 39.9997C24.1816 39.9999 24.1885 40 24.1955 40C24.2023 40 24.2092 39.9999 24.2162 39.9997C24.6348 39.9868 25.0461 39.906 25.4391 39.7595C27.4176 39.0205 28.4261 36.8097 27.6871 34.8311C27.6776 34.8057 27.6665 34.7808 27.6541 34.7566ZM24.9686 38.4995C24.72 38.5922 24.4598 38.6444 24.1953 38.6547C23.9305 38.6444 23.6705 38.5923 23.4222 38.4997C22.1504 38.0247 21.4962 36.6124 21.9501 35.3377L24.1953 31.0109L26.4401 35.3377C26.8941 36.6123 26.2401 38.0246 24.9686 38.4995Z" fill="#FFC700"/>
</svg>
