<svg width="71" height="71" viewBox="0 0 71 71" fill="none" xmlns="http://www.w3.org/2000/svg">
<g clip-path="url(#clip0)">
<rect x="2" y="17" width="67" height="15" fill="#FFC700"/>
<rect x="2" y="17" width="67" height="15" fill="#FFC700"/>
<rect x="2" y="17" width="67" height="15" fill="#FFC700"/>
<rect x="7" y="32" width="57" height="35" fill="#FFC700"/>
<rect x="7" y="32" width="57" height="35" fill="#FFC700"/>
<rect x="7" y="32" width="57" height="35" fill="#FFC700"/>
<g filter="url(#filter0_d)">
<path d="M54.5258 14.6854C55.8154 13.2986 56.6197 11.4127 56.6197 9.33262C56.6197 4.99219 53.1529 1.52539 48.9512 1.52539C45.7617 1.52539 38.4121 6.2957 35.4723 10.5807C32.4354 6.2957 25.1135 1.66406 22.0488 1.66406C17.8609 1.66406 14.3803 5.13086 14.3803 9.47129C14.3803 11.482 15.1291 13.2986 16.3355 14.6715H1.52539V33.3229H5.57461V69.4746H26.833H44.1809H65.4393V33.3367H69.4746V14.6854H54.5258ZM48.9512 4.42363C51.5582 4.42363 53.7215 6.58691 53.7215 9.48516C53.7215 11.9258 52.0158 14.0197 49.8109 14.4635H38.0793C37.3305 14.2416 37.0947 13.9781 37.0947 13.8256C37.0947 11.3572 45.7617 4.42363 48.9512 4.42363ZM22.0488 4.42363C25.0857 4.42363 33.9053 11.3572 33.9053 13.8256C33.9053 14.0475 33.3922 14.2971 33.0178 14.4635H21.2029C18.998 14.0197 17.2924 11.9258 17.2924 9.48516C17.2785 6.72559 19.4557 4.42363 22.0488 4.42363ZM26.8191 66.5764H8.45898V33.3367H26.8191V66.5764ZM26.8191 30.591H4.42363V17.5836H26.833V30.591H26.8191ZM41.2687 66.5764H29.7035V17.5697H41.2687V66.5764ZM62.5271 66.5764H44.167V33.3367H62.5271V66.5764ZM66.5625 30.591H44.167V17.5836H66.5764V30.591H66.5625Z" fill="#1A1A1F"/>
</g>
</g>
<defs>
<filter id="filter0_d" x="-22.4746" y="-22.4746" width="115.949" height="115.949" filterUnits="userSpaceOnUse" color-interpolation-filters="sRGB">
<feFlood flood-opacity="0" result="BackgroundImageFix"/>
<feColorMatrix in="SourceAlpha" type="matrix" values="0 0 0 0 0 0 0 0 0 0 0 0 0 0 0 0 0 0 127 0"/>
<feOffset/>
<feGaussianBlur stdDeviation="12"/>
<feColorMatrix type="matrix" values="0 0 0 0 1 0 0 0 0 0.780392 0 0 0 0 0 0 0 0 1 0"/>
<feBlend mode="normal" in2="BackgroundImageFix" result="effect1_dropShadow"/>
<feBlend mode="normal" in="SourceGraphic" in2="effect1_dropShadow" result="shape"/>
</filter>
<clipPath id="clip0">
<rect width="71" height="71" fill="white"/>
</clipPath>
</defs>
</svg>
