<svg width="40" height="40" viewBox="0 0 40 40" fill="none" xmlns="http://www.w3.org/2000/svg">
<path d="M19.9999 5.92603C13.0562 5.92603 7.40735 11.5749 7.40735 18.5186C7.40735 23.7868 10.6599 28.4534 15.5555 30.2964V37.0371C15.5555 37.4468 15.8866 37.7779 16.2962 37.7779H17.037V39.2594C17.037 39.669 17.3681 40.0001 17.7777 40.0001H22.2222C22.6318 40.0001 22.9629 39.669 22.9629 39.2594V37.7779H23.7036C24.1133 37.7779 24.4444 37.4468 24.4444 37.0371V30.2964C29.3399 28.4534 32.5925 23.7868 32.5925 18.5186C32.5925 11.5749 26.9436 5.92603 19.9999 5.92603ZM22.2222 36.2964C21.8125 36.2964 21.4814 36.6275 21.4814 37.0371V38.5186H18.5185V37.0371C18.5185 36.6275 18.1873 36.2964 17.7777 36.2964H17.037V32.5927H22.9629V36.2964H22.2222ZM23.4725 29.0682C23.1681 29.1682 22.9629 29.4527 22.9629 29.772V31.1112H17.037V29.772C17.037 29.452 16.8318 29.1682 16.5273 29.0682C11.9592 27.566 8.88883 23.326 8.88883 18.5186C8.88883 12.392 13.8733 7.40751 19.9999 7.40751C26.1266 7.40751 31.1111 12.392 31.1111 18.5186C31.1111 23.326 28.0407 27.566 23.4725 29.0682Z" fill="#FFC700"/>
<path d="M20 4.44444C20.4096 4.44444 20.7408 4.11333 20.7408 3.7037V0.740741C20.7408 0.331111 20.4096 0 20 0C19.5904 0 19.2593 0.331111 19.2593 0.740741V3.7037C19.2593 4.11333 19.5904 4.44444 20 4.44444Z" fill="#FFC700"/>
<path d="M37.7778 17.7778H34.8148C34.4052 17.7778 34.0741 18.1089 34.0741 18.5186C34.0741 18.9282 34.4052 19.2593 34.8148 19.2593H37.7778C38.1874 19.2593 38.5185 18.9282 38.5185 18.5186C38.5185 18.1089 38.1874 17.7778 37.7778 17.7778Z" fill="#FFC700"/>
<path d="M5.18515 17.7778H2.22219C1.81256 17.7778 1.48145 18.1089 1.48145 18.5186C1.48145 18.9282 1.81256 19.2593 2.22219 19.2593H5.18515C5.59478 19.2593 5.92589 18.9282 5.92589 18.5186C5.92589 18.1089 5.59478 17.7778 5.18515 17.7778Z" fill="#FFC700"/>
<path d="M32.0474 5.42373L29.9526 7.51855C29.6629 7.80818 29.6629 8.27632 29.9526 8.56595C30.097 8.7104 30.2866 8.78299 30.4763 8.78299C30.6659 8.78299 30.8555 8.7104 31 8.56595L33.0948 6.47114C33.3844 6.18151 33.3844 5.71336 33.0948 5.42373C32.8052 5.1341 32.3363 5.13484 32.0474 5.42373Z" fill="#FFC700"/>
<path d="M8.9999 28.4711L6.90509 30.5659C6.61546 30.8556 6.61546 31.3237 6.90509 31.6134C7.04953 31.7578 7.23916 31.8304 7.42879 31.8304C7.61842 31.8304 7.80805 31.7578 7.9525 31.6134L10.0473 29.5185C10.3369 29.2289 10.3369 28.7608 10.0473 28.4711C9.75768 28.1815 9.28953 28.1815 8.9999 28.4711Z" fill="#FFC700"/>
<path d="M31 28.4711C30.7103 28.1815 30.2422 28.1815 29.9526 28.4711C29.6629 28.7608 29.6629 29.2289 29.9526 29.5185L32.0474 31.6134C32.1918 31.7578 32.3815 31.8304 32.5711 31.8304C32.7607 31.8304 32.9504 31.7578 33.0948 31.6134C33.3844 31.3237 33.3844 30.8556 33.0948 30.5659L31 28.4711Z" fill="#FFC700"/>
<path d="M8.9999 8.56599C9.14435 8.71043 9.33398 8.78302 9.52361 8.78302C9.71324 8.78302 9.90287 8.71043 10.0473 8.56599C10.3369 8.27636 10.3369 7.80821 10.0473 7.51858L7.9525 5.42377C7.66287 5.13414 7.19472 5.13414 6.90509 5.42377C6.61546 5.71339 6.61546 6.18154 6.90509 6.47117L8.9999 8.56599Z" fill="#FFC700"/>
<path d="M20 9.62964C15.0985 9.62964 11.1111 13.617 11.1111 18.5185C11.1111 18.9282 11.4422 19.2593 11.8518 19.2593C12.2615 19.2593 12.5926 18.9282 12.5926 18.5185C12.5926 14.4341 15.9155 11.1111 20 11.1111C20.4096 11.1111 20.7407 10.78 20.7407 10.3704C20.7407 9.96075 20.4096 9.62964 20 9.62964Z" fill="#FFC700"/>
</svg>
