<svg width="159" height="50" viewBox="0 0 159 50" fill="none" xmlns="http://www.w3.org/2000/svg">
<g clip-path="url(#clip0)">
<path d="M43.2454 27.4226L36.0743 26.9103L31.3348 19.0151L28.9654 15.0619V13.9669C28.9661 12.7786 28.0033 11.8147 26.815 11.814C26.5488 11.8136 26.2847 11.863 26.0368 11.959L19.2223 14.5876L19.7372 12.8595C20.1437 11.4067 19.4842 9.86681 18.1523 9.15855L12.8052 6.286C12.4163 6.07726 11.9318 6.21056 11.7044 6.58885L3.86126 19.1484L3.69573 19.0525C3.29949 18.8247 2.79375 18.9617 2.56633 19.3579C2.56121 19.3663 2.55681 19.3747 2.55205 19.3835L0.0966081 24.0062C-0.115062 24.4054 0.0325212 24.9001 0.427663 25.1188L30.2903 41.6704C30.413 41.7381 30.5507 41.7737 30.691 41.7737H43.0345C45.7756 41.7711 47.9974 39.5497 47.9999 36.8082V32.5279C47.9911 29.8458 45.9202 27.6222 43.2454 27.4226ZM34.3447 27.2453L33.3995 27.5607L25.9943 17.9326L27.8979 16.5033L34.3447 27.2453ZM12.7173 8.11742L17.3693 10.6142C18.0142 10.9552 18.3365 11.6971 18.1457 12.401L17.462 14.7052L12.7115 11.8564L11.0665 10.8691L12.7173 8.11742ZM7.81743 16.0159L8.24114 15.3537L10.9639 17.3789C12.3497 18.4193 13.0572 20.1328 12.8093 21.8481L12.706 24.2399L5.30962 19.9768L7.81743 16.0159ZM43.0345 40.1188H30.9037L1.93828 24.0633L3.61077 20.9187L31.0345 36.698C31.1604 36.7705 31.3029 36.8086 31.4483 36.8082H46.3447C46.3447 38.6363 44.8626 40.1188 43.0345 40.1188ZM46.3447 35.1529H31.6691L25.9928 31.8849L27.9012 29.9392C28.2165 29.6085 28.204 29.0845 27.873 28.7692C27.5489 28.4601 27.0376 28.4652 26.7194 28.7805L24.5115 31.0316L21.3665 29.2192L24.5207 26.696C24.8774 26.4104 24.9352 25.8893 24.6496 25.5322C24.3639 25.1755 23.8428 25.1177 23.4861 25.4033L19.8255 28.3323L17.1309 26.7828L21.2193 23.3756C21.5709 23.083 21.6185 22.5611 21.3262 22.2096C21.0336 21.858 20.5114 21.8104 20.1598 22.1026L15.6016 25.9021L14.3221 25.1656L14.4561 21.9888C14.7626 19.6999 13.8035 17.425 11.9512 16.0466L9.1314 13.9501L10.1967 12.2776L17.5224 16.6728C17.6209 16.7296 17.73 16.7648 17.8428 16.7765C17.8626 16.7765 17.8798 16.7831 17.9 16.7845C17.9197 16.7864 17.9322 16.7904 17.9479 16.7904C18.0501 16.7908 18.1519 16.7721 18.2475 16.7351L26.6308 13.5018C26.7842 13.4432 26.956 13.4634 27.0918 13.5556C27.2281 13.649 27.309 13.8039 27.3079 13.9695V14.8799L24.3284 17.1141C23.9629 17.3888 23.8893 17.9077 24.164 18.2728C24.1658 18.2754 24.1677 18.2779 24.1695 18.2801L32.4455 29.039C32.6594 29.3192 33.0281 29.432 33.3625 29.3196L35.6886 28.5439L43.1257 29.0753C44.9355 29.2093 46.3377 30.713 46.3447 32.5279V35.1529Z" fill="#FFC700"/>
</g>
<path d="M64.9 18.644H68.968V32H64.9V18.644ZM81.2471 27.068C81.2471 27.128 81.2291 27.446 81.1931 28.022H74.3531C74.4971 28.394 74.7371 28.682 75.0731 28.886C75.4091 29.078 75.8291 29.174 76.3331 29.174C76.7651 29.174 77.1251 29.12 77.4131 29.012C77.7131 28.904 78.0371 28.718 78.3851 28.454L80.5091 30.596C79.5491 31.652 78.1151 32.18 76.2071 32.18C75.0191 32.18 73.9751 31.964 73.0751 31.532C72.1751 31.088 71.4791 30.476 70.9871 29.696C70.4951 28.916 70.2491 28.04 70.2491 27.068C70.2491 26.084 70.4891 25.208 70.9691 24.44C71.4611 23.66 72.1271 23.054 72.9671 22.622C73.8191 22.19 74.7731 21.974 75.8291 21.974C76.8251 21.974 77.7311 22.172 78.5471 22.568C79.3751 22.964 80.0291 23.546 80.5091 24.314C81.0011 25.082 81.2471 26 81.2471 27.068ZM75.8651 24.746C75.4451 24.746 75.0971 24.86 74.8211 25.088C74.5451 25.316 74.3651 25.64 74.2811 26.06H77.4491C77.3651 25.652 77.1851 25.334 76.9091 25.106C76.6331 24.866 76.2851 24.746 75.8651 24.746ZM93.4209 18.644V32H89.5509V31.19C88.9629 31.85 88.0629 32.18 86.8509 32.18C85.9869 32.18 85.1889 31.976 84.4569 31.568C83.7369 31.148 83.1609 30.548 82.7289 29.768C82.3089 28.988 82.0989 28.088 82.0989 27.068C82.0989 26.048 82.3089 25.154 82.7289 24.386C83.1609 23.606 83.7369 23.012 84.4569 22.604C85.1889 22.184 85.9869 21.974 86.8509 21.974C87.9429 21.974 88.7769 22.256 89.3529 22.82V18.644H93.4209ZM87.8229 29.012C88.2909 29.012 88.6749 28.844 88.9749 28.508C89.2749 28.16 89.4249 27.68 89.4249 27.068C89.4249 26.456 89.2749 25.982 88.9749 25.646C88.6749 25.31 88.2909 25.142 87.8229 25.142C87.3549 25.142 86.9709 25.31 86.6709 25.646C86.3709 25.982 86.2209 26.456 86.2209 27.068C86.2209 27.68 86.3709 28.16 86.6709 28.508C86.9709 28.844 87.3549 29.012 87.8229 29.012ZM95.1323 25.268H100.532V28.328H95.1323V25.268ZM106.088 32.18C105.248 32.18 104.42 32.09 103.604 31.91C102.788 31.73 102.128 31.496 101.624 31.208L102.74 28.526C103.196 28.802 103.736 29.018 104.36 29.174C104.984 29.33 105.59 29.408 106.178 29.408C106.646 29.408 106.97 29.372 107.15 29.3C107.342 29.216 107.438 29.096 107.438 28.94C107.438 28.784 107.318 28.676 107.078 28.616C106.85 28.556 106.472 28.496 105.944 28.436C105.14 28.34 104.456 28.22 103.892 28.076C103.328 27.92 102.83 27.626 102.398 27.194C101.978 26.762 101.768 26.144 101.768 25.34C101.768 24.704 101.96 24.134 102.344 23.63C102.728 23.126 103.298 22.724 104.054 22.424C104.822 22.124 105.74 21.974 106.808 21.974C107.552 21.974 108.278 22.046 108.986 22.19C109.706 22.322 110.318 22.52 110.822 22.784L109.706 25.466C108.842 24.986 107.894 24.746 106.862 24.746C105.974 24.746 105.53 24.902 105.53 25.214C105.53 25.37 105.65 25.484 105.89 25.556C106.13 25.616 106.508 25.676 107.024 25.736C107.828 25.832 108.506 25.958 109.058 26.114C109.622 26.27 110.114 26.564 110.534 26.996C110.966 27.428 111.182 28.046 111.182 28.85C111.182 29.462 110.99 30.02 110.606 30.524C110.222 31.028 109.646 31.43 108.878 31.73C108.11 32.03 107.18 32.18 106.088 32.18ZM119.254 21.974C120.466 21.974 121.438 22.34 122.17 23.072C122.914 23.804 123.286 24.908 123.286 26.384V32H119.218V27.086C119.218 25.958 118.816 25.394 118.012 25.394C117.556 25.394 117.184 25.556 116.896 25.88C116.62 26.192 116.482 26.69 116.482 27.374V32H112.414V18.644H116.482V22.946C117.238 22.298 118.162 21.974 119.254 21.974ZM130.43 32.18C129.338 32.18 128.354 31.964 127.478 31.532C126.614 31.088 125.936 30.482 125.444 29.714C124.952 28.934 124.706 28.052 124.706 27.068C124.706 26.084 124.952 25.208 125.444 24.44C125.936 23.66 126.614 23.054 127.478 22.622C128.354 22.19 129.338 21.974 130.43 21.974C131.534 21.974 132.518 22.19 133.382 22.622C134.258 23.054 134.936 23.66 135.416 24.44C135.908 25.208 136.154 26.084 136.154 27.068C136.154 28.052 135.908 28.934 135.416 29.714C134.936 30.482 134.258 31.088 133.382 31.532C132.518 31.964 131.534 32.18 130.43 32.18ZM130.43 29.012C130.898 29.012 131.282 28.844 131.582 28.508C131.882 28.16 132.032 27.68 132.032 27.068C132.032 26.456 131.882 25.982 131.582 25.646C131.282 25.31 130.898 25.142 130.43 25.142C129.962 25.142 129.578 25.31 129.278 25.646C128.978 25.982 128.828 26.456 128.828 27.068C128.828 27.68 128.978 28.16 129.278 28.508C129.578 28.844 129.962 29.012 130.43 29.012ZM147.903 27.068C147.903 27.128 147.885 27.446 147.849 28.022H141.009C141.153 28.394 141.393 28.682 141.729 28.886C142.065 29.078 142.485 29.174 142.989 29.174C143.421 29.174 143.781 29.12 144.069 29.012C144.369 28.904 144.693 28.718 145.041 28.454L147.165 30.596C146.205 31.652 144.771 32.18 142.863 32.18C141.675 32.18 140.631 31.964 139.731 31.532C138.831 31.088 138.135 30.476 137.643 29.696C137.151 28.916 136.905 28.04 136.905 27.068C136.905 26.084 137.145 25.208 137.625 24.44C138.117 23.66 138.783 23.054 139.623 22.622C140.475 22.19 141.429 21.974 142.485 21.974C143.481 21.974 144.387 22.172 145.203 22.568C146.031 22.964 146.685 23.546 147.165 24.314C147.657 25.082 147.903 26 147.903 27.068ZM142.521 24.746C142.101 24.746 141.753 24.86 141.477 25.088C141.201 25.316 141.021 25.64 140.937 26.06H144.105C144.021 25.652 143.841 25.334 143.565 25.106C143.289 24.866 142.941 24.746 142.521 24.746ZM153.039 32.18C152.199 32.18 151.371 32.09 150.555 31.91C149.739 31.73 149.079 31.496 148.575 31.208L149.691 28.526C150.147 28.802 150.687 29.018 151.311 29.174C151.935 29.33 152.541 29.408 153.129 29.408C153.597 29.408 153.921 29.372 154.101 29.3C154.293 29.216 154.389 29.096 154.389 28.94C154.389 28.784 154.269 28.676 154.029 28.616C153.801 28.556 153.423 28.496 152.895 28.436C152.091 28.34 151.407 28.22 150.843 28.076C150.279 27.92 149.781 27.626 149.349 27.194C148.929 26.762 148.719 26.144 148.719 25.34C148.719 24.704 148.911 24.134 149.295 23.63C149.679 23.126 150.249 22.724 151.005 22.424C151.773 22.124 152.691 21.974 153.759 21.974C154.503 21.974 155.229 22.046 155.937 22.19C156.657 22.322 157.269 22.52 157.773 22.784L156.657 25.466C155.793 24.986 154.845 24.746 153.813 24.746C152.925 24.746 152.481 24.902 152.481 25.214C152.481 25.37 152.601 25.484 152.841 25.556C153.081 25.616 153.459 25.676 153.975 25.736C154.779 25.832 155.457 25.958 156.009 26.114C156.573 26.27 157.065 26.564 157.485 26.996C157.917 27.428 158.133 28.046 158.133 28.85C158.133 29.462 157.941 30.02 157.557 30.524C157.173 31.028 156.597 31.43 155.829 31.73C155.061 32.03 154.131 32.18 153.039 32.18Z" fill="white"/>
<defs>
<clipPath id="clip0">
<rect width="48" height="48" fill="white"/>
</clipPath>
</defs>
</svg>
