<svg width="96" height="96" viewBox="0 0 96 96" fill="none" xmlns="http://www.w3.org/2000/svg">
<path d="M71.206 87.1875H71.1775C70.1421 87.1875 69.3025 88.0271 69.3025 89.0625C69.3025 90.0979 70.1421 90.9375 71.1775 90.9375H71.206C72.2414 90.9375 73.081 90.0979 73.081 89.0625C73.081 88.0271 72.2414 87.1875 71.206 87.1875Z" fill="white"/>
<path d="M94.125 34.6875H73.9018L53.6329 14.4186C54.1057 13.5283 54.375 12.5139 54.375 11.4375C54.375 7.92225 51.5153 5.0625 48 5.0625C44.4847 5.0625 41.625 7.92225 41.625 11.4375C41.625 12.5139 41.8942 13.5283 42.3673 14.4186L22.0982 34.6875H1.875C0.839625 34.6875 0 35.5269 0 36.5625V89.0625C0 90.0979 0.839625 90.9375 1.875 90.9375H63.6662C64.7016 90.9375 65.5412 90.0979 65.5412 89.0625C65.5412 88.0271 64.7016 87.1875 63.6662 87.1875H3.75V38.4375H73.1213C73.1226 38.4375 73.1239 38.4377 73.1252 38.4377C73.1265 38.4377 73.1278 38.4375 73.1291 38.4375H92.25V87.1875H78.7157C77.6803 87.1875 76.8407 88.0271 76.8407 89.0625C76.8407 90.0979 77.6803 90.9375 78.7157 90.9375H94.125C95.1604 90.9375 96 90.0979 96 89.0625V36.5625C96 35.5269 95.1604 34.6875 94.125 34.6875ZM48 8.8125C49.4475 8.8125 50.625 9.99 50.625 11.4375C50.625 12.885 49.4475 14.0625 48 14.0625C46.5525 14.0625 45.375 12.885 45.375 11.4375C45.375 9.99 46.5525 8.8125 48 8.8125ZM27.4016 34.6875L45.0189 17.0702C45.9092 17.5433 46.9236 17.8125 48 17.8125C49.0764 17.8125 50.0908 17.5433 50.9811 17.0702L68.5984 34.6875H27.4016Z" fill="#FFC700"/>
<path d="M86.6251 49.6871C83.5235 49.6871 81.0001 47.1638 81.0001 44.0621C81.0001 43.0266 80.1605 42.1871 79.1251 42.1871H56.1249C55.0895 42.1871 54.2499 43.0266 54.2499 44.0621C54.2499 45.0977 55.0895 45.9371 56.1249 45.9371H77.4386C78.1861 49.6048 81.0825 52.5009 84.7501 53.2487V72.3759C81.0823 73.1235 78.1861 76.0198 77.4386 79.6875H18.5613C17.8138 76.0196 14.9174 73.1235 11.2498 72.3759V53.2487C14.9176 52.5011 17.8138 49.6048 18.5613 45.9371H39.4687C40.5041 45.9371 41.3437 45.0977 41.3437 44.0621C41.3437 43.0266 40.5041 42.1873 39.4687 42.1873H16.8748C15.8394 42.1873 14.9998 43.0268 14.9998 44.0623C14.9998 47.1639 12.4764 49.6873 9.37476 49.6873C8.33938 49.6873 7.49976 50.5269 7.49976 51.5623V74.0625C7.49976 75.0979 8.33938 75.9375 9.37476 75.9375C12.4764 75.9375 14.9998 78.4609 14.9998 81.5625C14.9998 82.5979 15.8394 83.4375 16.8748 83.4375H79.1251C80.1605 83.4375 81.0001 82.5979 81.0001 81.5625C81.0001 78.4609 83.5235 75.9375 86.6251 75.9375C87.6605 75.9375 88.5001 75.0979 88.5001 74.0625V51.5621C88.5001 50.5268 87.6605 49.6871 86.6251 49.6871Z" fill="#FFC700"/>
<path d="M49.3254 42.7369C48.9769 42.3862 48.4931 42.1875 48 42.1875C47.5069 42.1875 47.0231 42.3881 46.6744 42.7369C46.3256 43.0856 46.125 43.5694 46.125 44.0625C46.125 44.5556 46.3254 45.0394 46.6744 45.3881C47.0233 45.7369 47.5069 45.9375 48 45.9375C48.4931 45.9375 48.9769 45.7369 49.3254 45.3881C49.6742 45.0394 49.875 44.5556 49.875 44.0625C49.875 43.5694 49.6744 43.0856 49.3254 42.7369Z" fill="white"/>
<path d="M27.3698 53.4375C23.809 53.4373 20.9121 56.3342 20.9121 59.8952V65.7298C20.9121 69.2904 23.809 72.1873 27.3698 72.1873C30.9304 72.1873 33.8273 69.2904 33.8273 65.7298V59.8952C33.8273 56.3344 30.9304 53.4375 27.3698 53.4375ZM30.0775 65.7298C30.0775 67.2229 28.8629 68.4373 27.37 68.4373C25.8771 68.4373 24.6623 67.2227 24.6623 65.7298V59.8952C24.6623 58.4021 25.8771 57.1875 27.37 57.1875C28.8629 57.1875 30.0775 58.4021 30.0775 59.8952V65.7298Z" fill="white"/>
<path d="M43.5396 53.4373H38.3909C37.3555 53.4373 36.5159 54.2769 36.5159 55.3123V70.3123C36.5159 71.3477 37.3555 72.1873 38.3909 72.1873C39.4262 72.1873 40.2659 71.3477 40.2659 70.3123V64.6873H43.5396C46.4346 64.6873 48.7902 62.3319 48.7902 59.4369V58.6879C48.7902 55.7929 46.4346 53.4373 43.5396 53.4373ZM45.0402 59.4369C45.0402 60.2642 44.3671 60.9373 43.5396 60.9373H40.2659V57.1873H43.5396C44.3671 57.1873 45.0402 57.8604 45.0402 58.6879V59.4369Z" fill="white"/>
<path d="M58.569 68.4362H54.5428C54.5056 68.4362 54.4755 68.406 54.4755 68.3689V64.6873H56.6747C57.71 64.6873 58.5497 63.8477 58.5497 62.8123C58.5497 61.777 57.71 60.9373 56.6747 60.9373H54.4755V57.256C54.4753 57.2188 54.5055 57.1887 54.5428 57.1887H58.569C59.6043 57.1887 60.444 56.349 60.444 55.3137C60.444 54.2783 59.6043 53.4387 58.569 53.4387H54.5428C52.4377 53.4387 50.7255 55.1511 50.7255 57.256V68.3689C50.7255 70.474 52.4379 72.1862 54.5428 72.1862H58.569C59.6043 72.1862 60.444 71.3466 60.444 70.3112C60.444 69.2758 59.6043 68.4362 58.569 68.4362Z" fill="white"/>
<path d="M73.213 53.4373C72.1776 53.4373 71.338 54.277 71.338 55.3123V63.2438L66.2815 54.3831C65.8598 53.6443 64.9939 53.2825 64.1723 53.5C63.3503 53.718 62.7778 54.462 62.7778 55.3123V70.3123C62.7778 71.3477 63.6175 72.1873 64.6528 72.1873C65.6882 72.1873 66.5278 71.3479 66.5278 70.3123V62.3809L71.5843 71.2416C71.9241 71.8367 72.5516 72.1875 73.2128 72.1875C73.3725 72.1875 73.534 72.1671 73.6935 72.1247C74.5155 71.9067 75.088 71.1627 75.088 70.3123V55.3123C75.088 54.277 74.2483 53.4373 73.213 53.4373Z" fill="white"/>
</svg>
