<svg width="96" height="96" viewBox="0 0 96 96" fill="none" xmlns="http://www.w3.org/2000/svg">
<g clip-path="url(#clip0)">
<path d="M73.6201 46.6744C73.2713 46.3254 72.7876 46.125 72.2944 46.125C71.8013 46.125 71.3176 46.3254 70.9688 46.6744C70.6201 47.0231 70.4194 47.5069 70.4194 48C70.4194 48.4931 70.6201 48.9769 70.9688 49.3254C71.3176 49.6742 71.8013 49.875 72.2944 49.875C72.7876 49.875 73.2713 49.6744 73.6201 49.3254C73.9688 48.9769 74.1694 48.4931 74.1694 48C74.1694 47.5069 73.9688 47.0231 73.6201 46.6744Z" fill="white"/>
<path d="M94.1246 19.6899H81.6781V19.125C81.6781 8.57944 73.0987 0 62.5531 0C59.5704 0 56.7451 0.686813 54.2266 1.90987C51.708 0.686813 48.8829 0 45.9 0C35.3544 0 26.775 8.57944 26.775 19.125V19.6899H11.9971C10.9616 19.6899 10.1221 20.5296 10.1221 21.5649V51.8076C9.44302 51.9788 8.90002 52.521 8.74721 53.2309L0.0413974 93.7309C-0.0776651 94.2846 0.0601474 94.8626 0.416022 95.3033C0.771897 95.7439 1.30815 96 1.87458 96H79.8031C80.334 96 80.8125 95.7784 81.1535 95.4238L86.9626 89.6145L92.7963 95.4482C93.1479 95.7998 93.6273 95.9974 94.1246 95.9974C95.1601 95.9974 95.9996 95.1577 95.9996 94.1224V21.5649C95.9996 20.5294 95.1601 19.6899 94.1246 19.6899ZM54.2266 6.21019C58.4632 8.95106 61.2752 13.7145 61.2752 19.125V19.6899H47.1782V19.125C47.1782 13.7143 49.9899 8.95106 54.2266 6.21019ZM45.9 3.75C47.4474 3.75 48.9414 3.98213 50.3512 4.40944C46.1244 7.92037 43.4282 13.2135 43.4282 19.125V19.6899H30.5251V19.125H30.525C30.525 10.6472 37.4221 3.75 45.9 3.75ZM11.9971 92.25H4.19546L12.095 55.5H18.6588V56.4375C18.6588 57.4729 19.4983 58.3125 20.5338 58.3125C21.5694 58.3125 22.4088 57.4729 22.4088 56.4375V55.5H42.2805V56.4375C42.2805 57.4729 43.1199 58.3125 44.1555 58.3125C45.191 58.3125 46.0305 57.4729 46.0305 56.4375V55.5H52.5943L60.4938 92.25H11.9971ZM22.409 51.75V49.4912C22.409 44.0124 26.8663 39.5554 32.3448 39.5554C37.8234 39.5554 42.2806 44.0124 42.2806 49.4912V51.75H22.409ZM64.3299 92.25L55.9425 53.2309C55.7566 52.3671 54.993 51.75 54.1093 51.75H46.0306V49.4912C46.0306 41.9449 39.8911 35.8054 32.3448 35.8054C24.7985 35.8054 18.659 41.9449 18.659 49.4912V51.75H13.8721V23.4399H26.7751V26.4754C26.7751 27.5107 27.6146 28.3504 28.6501 28.3504C29.6857 28.3504 30.5251 27.5107 30.5251 26.4754V23.4399H61.2752V26.4754C61.2752 27.5107 62.1146 28.3504 63.1502 28.3504C64.1857 28.3504 65.0251 27.5107 65.0251 26.4754V23.4399H70.4195V40.9817C70.4195 42.0171 71.259 42.8567 72.2945 42.8567C73.3301 42.8567 74.1695 42.0171 74.1695 40.9817V23.4399H77.9281V92.25H64.3299ZM77.9281 19.6899H65.0251V19.125C65.0251 13.2135 62.3289 7.92037 58.1019 4.40944C59.5117 3.98213 61.0055 3.75 62.5531 3.75C71.031 3.75 77.9281 10.6472 77.9281 19.125V19.6899ZM92.2496 89.5984L88.805 86.1538C88.8255 86.0432 88.8375 85.9296 88.8375 85.8129V65.2054C88.8375 64.17 87.998 63.3304 86.9625 63.3304C85.9269 63.3304 85.0875 64.17 85.0875 65.2054V85.8131C85.0875 85.9298 85.0995 86.0434 85.1199 86.154L81.678 89.5957V23.4399H92.2496V89.5984Z" fill="#FFC700"/>
<path d="M37.6075 64.0845C36.7058 63.5757 35.5621 63.8937 35.053 64.7955L24.0014 84.3722C23.4923 85.2741 23.8105 86.4176 24.7124 86.9267C25.0037 87.0911 25.32 87.1693 25.6324 87.1693C26.2868 87.1693 26.9222 86.8262 27.2669 86.2157L38.3185 66.639C38.8277 65.7373 38.5094 64.5936 37.6075 64.0845Z" fill="white"/>
<path d="M39.9163 77.1225C36.8146 77.1225 34.2913 79.6459 34.2913 82.7475C34.2913 85.8491 36.8146 88.3725 39.9163 88.3725C43.0179 88.3725 45.5413 85.8491 45.5413 82.7475C45.5413 79.6459 43.0179 77.1225 39.9163 77.1225ZM39.9163 84.6225C38.8824 84.6225 38.0413 83.7814 38.0413 82.7475C38.0413 81.7136 38.8824 80.8725 39.9163 80.8725C40.9501 80.8725 41.7913 81.7136 41.7913 82.7475C41.7913 83.7814 40.9503 84.6225 39.9163 84.6225Z" fill="white"/>
<path d="M24.8023 60.5306C21.7006 60.5306 19.1772 63.054 19.1772 66.1556C19.1772 69.2573 21.7006 71.7806 24.8023 71.7806C27.9039 71.7806 30.4273 69.2573 30.4273 66.1556C30.4273 63.054 27.9039 60.5306 24.8023 60.5306ZM24.8023 68.0306C23.7684 68.0306 22.9272 67.1895 22.9272 66.1556C22.9272 65.1218 23.7684 64.2806 24.8023 64.2806C25.8361 64.2806 26.6773 65.1218 26.6773 66.1556C26.6773 67.1895 25.8361 68.0306 24.8023 68.0306Z" fill="white"/>
<path d="M88.288 56.8614C87.9393 56.5127 87.4555 56.3121 86.9624 56.3121C86.4693 56.3121 85.9855 56.5125 85.6368 56.8614C85.288 57.2102 85.0874 57.6939 85.0874 58.1871C85.0874 58.6802 85.288 59.1638 85.6368 59.5125C85.9855 59.8613 86.4693 60.0621 86.9624 60.0621C87.4555 60.0621 87.9393 59.8614 88.288 59.5125C88.6387 59.1639 88.8374 58.6802 88.8374 58.1871C88.8374 57.6939 88.6387 57.2102 88.288 56.8614Z" fill="white"/>
</g>
<defs>
<clipPath id="clip0">
<rect width="96" height="96" fill="white"/>
</clipPath>
</defs>
</svg>
