<svg width="96" height="96" viewBox="0 0 96 96" fill="none" xmlns="http://www.w3.org/2000/svg">
<g clip-path="url(#clip0)">
<path d="M31.3599 37.1251C30.3245 37.1251 29.4849 37.9647 29.4849 39.0001V62.6247C29.4849 63.6601 30.3245 64.4997 31.3599 64.4997C32.3952 64.4997 33.2349 63.6601 33.2349 62.6247V39.0001C33.2349 37.9647 32.3952 37.1251 31.3599 37.1251Z" fill="white"/>
<path d="M46.3599 37.1251C45.3245 37.1251 44.4849 37.9647 44.4849 39.0001V62.6247C44.4849 63.6601 45.3245 64.4997 46.3599 64.4997C47.3952 64.4997 48.2349 63.6601 48.2349 62.6247V39.0001C48.2349 37.9647 47.3952 37.1251 46.3599 37.1251Z" fill="white"/>
<path d="M61.3599 37.1251C60.3245 37.1251 59.4849 37.9647 59.4849 39.0001V62.6247C59.4849 63.6601 60.3245 64.4997 61.3599 64.4997C62.3952 64.4997 63.2349 63.6601 63.2349 62.6247V39.0001C63.2349 37.9647 62.3952 37.1251 61.3599 37.1251Z" fill="white"/>
<path d="M76.3599 37.1251C75.3245 37.1251 74.4849 37.9647 74.4849 39.0001V62.6247C74.4849 63.6601 75.3245 64.4997 76.3599 64.4997C77.3952 64.4997 78.2349 63.6601 78.2349 62.6247V39.0001C78.2349 37.9647 77.3952 37.1251 76.3599 37.1251Z" fill="white"/>
<path d="M88.4701 71.236L95.97 30.3358C96.0704 29.7884 95.9224 29.2246 95.5664 28.7973C95.2101 28.3698 94.6823 28.1225 94.1258 28.1225H85.8758V12C85.8758 10.9646 85.0362 10.125 84.0008 10.125H49.8759V1.875C49.8759 0.839623 49.0363 0 48.0009 0H28.5009C27.4655 0 26.6259 0.839623 26.6259 1.875V28.1225H16.6751L13.8488 11.6824C13.6941 10.7825 12.9139 10.125 12.001 10.125H1.87597C0.8406 10.125 0.000976562 10.9646 0.000976562 12V19.5C0.000976562 20.5353 0.8406 21.375 1.87597 21.375H11.71L20.2509 71.0579V73.4989C20.2509 78.9319 24.3984 83.4143 29.6934 83.9468C28.9316 85.1588 28.4889 86.5909 28.4889 88.125C28.4889 92.4673 32.0216 96 36.3639 96C40.7062 96 44.2389 92.4673 44.2389 88.125C44.2389 86.6134 43.8099 85.2006 43.0685 84H65.6828C64.9415 85.2006 64.5125 86.6134 64.5125 88.125C64.5125 92.4673 68.0452 96 72.3875 96C76.7298 96 80.2624 92.4673 80.2624 88.125C80.2624 86.6134 79.8335 85.2006 79.0921 84H86.6258C87.6612 84 88.5008 83.1604 88.5008 82.125C88.5008 81.0897 87.6612 80.25 86.6258 80.25H30.752C27.0294 80.2498 24.0009 77.2214 24.0009 73.4987V72.7727H86.6258C87.5309 72.7727 88.3069 72.1262 88.4701 71.236ZM3.75097 17.625V13.875H10.4207L11.0653 17.625H3.75097ZM72.3878 83.9998C74.6624 83.9998 76.5128 85.8503 76.5128 88.1248C76.5128 90.3994 74.6624 92.2498 72.3878 92.2498C70.1133 92.2498 68.2628 90.3994 68.2628 88.1248C68.2628 85.8503 70.1133 83.9998 72.3878 83.9998ZM36.3641 83.9998C38.6387 83.9998 40.4891 85.8503 40.4891 88.1248C40.4891 90.3994 38.6387 92.2498 36.3641 92.2498C34.0895 92.2498 32.2391 90.3994 32.2391 88.1248C32.2391 85.8503 34.0895 83.9998 36.3641 83.9998ZM49.8997 21.375H66.1913C67.2267 21.375 68.0663 20.5353 68.0663 19.5C68.0663 18.4646 67.2267 17.625 66.1913 17.625H49.8997V13.875H82.1258V28.1225H49.8997V21.375ZM30.3759 3.74999H46.1259V28.1225H30.3759V3.74999ZM85.0634 69.0227H23.7062L17.3198 31.8725H91.8758L85.0634 69.0227Z" fill="#FFC700"/>
<path d="M77.0961 18.1743C76.7455 17.8256 76.2618 17.6249 75.7705 17.6249C75.2774 17.6249 74.7936 17.8254 74.443 18.1743C74.0944 18.5231 73.8955 19.0068 73.8955 19.4999C73.8955 19.9931 74.0944 20.4768 74.443 20.8254C74.7936 21.1743 75.2776 21.3749 75.7705 21.3749C76.2618 21.3749 76.7455 21.1743 77.0961 20.8254C77.4449 20.4768 77.6455 19.9931 77.6455 19.4999C77.6455 19.0068 77.4451 18.5231 77.0961 18.1743Z" fill="white"/>
</g>
<defs>
<clipPath id="clip0">
<rect width="96" height="96" fill="white"/>
</clipPath>
</defs>
</svg>
