<svg width="40" height="40" viewBox="0 0 40 40" fill="none" xmlns="http://www.w3.org/2000/svg">
<path d="M34.4175 15.8146L40 10.2328L29.7665 0L24.1854 5.58245L23.2553 4.65237C22.9984 4.3956 22.5821 4.3956 22.3252 4.65237L6.51121 20.4657C5.74056 21.2363 5.7404 22.4857 6.51097 23.2563C6.51105 23.2564 6.51113 23.2565 6.51121 23.2566L8.37137 25.1168L6.97625 26.5119C6.20535 27.2823 6.20503 28.5317 6.97535 29.3025C6.97568 29.3029 6.97593 29.3031 6.97625 29.3034L7.44129 29.7685L0 37.2098L2.79024 40L10.2322 32.5594L10.6972 33.0244C11.4678 33.7951 12.7172 33.7952 13.4879 33.0247C13.488 33.0246 13.488 33.0245 13.4881 33.0244L14.8832 31.6293L16.7434 33.4894C17.514 34.2601 18.7634 34.2603 19.5341 33.4897C19.5341 33.4896 19.5342 33.4895 19.5343 33.4894L35.3476 17.6755C35.6044 17.4186 35.6044 17.0022 35.3476 16.7454L34.4175 15.8146ZM2.79024 38.1398L1.86016 37.2098L8.37203 30.6979L9.30277 31.628L2.79024 38.1398ZM12.5574 32.0937C12.2972 32.3424 11.8875 32.3424 11.6273 32.0937L11.1623 31.6286L7.90633 28.3733C7.64931 28.1167 7.64907 27.7001 7.90584 27.4431C7.90601 27.4429 7.90617 27.4428 7.90633 27.4426L9.30145 26.0475L13.9525 30.6985L12.5574 32.0937ZM29.7665 1.86147L38.1385 10.2328L33.4881 14.8846L25.1154 6.51187L29.7665 1.86147ZM18.6042 32.5594C18.3475 32.8164 17.931 32.8166 17.674 32.5599C17.6738 32.5597 17.6736 32.5595 17.6735 32.5594L7.44064 22.3265C7.18362 22.0698 7.18337 21.6533 7.44014 21.3963C7.44031 21.3961 7.44047 21.3959 7.44064 21.3958L22.7902 6.04749L33.9525 17.2104L18.6042 32.5594Z" fill="#FFC700"/>
<path d="M29.3014 3.25659L26.5105 6.04749L29.3014 8.83773L32.0923 6.04749L29.3014 3.25659ZM28.3713 6.04749L29.3014 5.11675L30.2321 6.04749L29.3014 6.97757L28.3713 6.04749Z" fill="#FFC700"/>
<path d="M36.7432 10.6984L33.9523 7.90747L31.1621 10.6984L33.9523 13.4893L36.7432 10.6984ZM33.9523 9.76763L34.8824 10.6984L33.9523 11.6285L33.0223 10.6984L33.9523 9.76763Z" fill="#FFC700"/>
<path d="M26.2612 16.9604L27.4405 12.5593L23.0388 13.7387L24.1853 14.8845L17.1755 21.8943V19.279L18.9152 17.5393C18.9923 17.5538 19.0704 17.5615 19.1487 17.5623C19.8753 17.5648 20.4663 16.9779 20.4688 16.2513C20.4713 15.5247 19.8844 14.9337 19.1578 14.9312C18.4312 14.9287 17.8402 15.5156 17.8377 16.2422C17.8372 16.3923 17.8624 16.5413 17.9121 16.6829L15.8599 18.7344V23.2072L14.8799 24.1873C14.1781 23.9992 13.4567 24.4156 13.2686 25.1174C13.0805 25.8191 13.4969 26.5405 14.1987 26.7286C14.9004 26.9168 15.6218 26.5003 15.8099 25.7986C15.8697 25.5754 15.8697 25.3405 15.8099 25.1174L18.1055 22.8244H22.7165L24.6306 20.911L25.1153 21.3957L26.9761 19.5356L25.116 17.6754L23.2545 19.5356L23.6998 19.9809L22.1745 21.5089H19.4211L25.1153 15.8146L26.2612 16.9604Z" fill="#FFC700"/>
</svg>
