<svg width="32" height="32" viewBox="0 0 32 32" fill="none" xmlns="http://www.w3.org/2000/svg">
<path d="M16 32C24.8366 32 32 24.8366 32 16C32 7.16344 24.8366 0 16 0C7.16344 0 0 7.16344 0 16C0 24.8366 7.16344 32 16 32Z" fill="#4D76A1"/>
<path fill-rule="evenodd" clip-rule="evenodd" d="M15.3956 23.0175H16.6514C16.6514 23.0175 17.0307 22.9759 17.2244 22.7671C17.4026 22.5755 17.3969 22.2155 17.3969 22.2155C17.3969 22.2155 17.3724 20.5305 18.1545 20.2823C18.9254 20.0379 19.9154 21.9109 20.9647 22.6311C21.7582 23.1761 22.3611 23.0566 22.3611 23.0566L25.1668 23.0175C25.1668 23.0175 26.6345 22.9271 25.9386 21.7731C25.8815 21.6787 25.5333 20.9195 23.8525 19.3594C22.0933 17.7265 22.3289 17.9906 24.448 15.1661C25.7386 13.446 26.2546 12.3958 26.0934 11.9461C25.9397 11.5177 24.9905 11.6309 24.9905 11.6309L21.8315 11.6506C21.8315 11.6506 21.5973 11.6186 21.4236 11.7225C21.2539 11.8243 21.1447 12.0616 21.1447 12.0616C21.1447 12.0616 20.6447 13.3927 19.9778 14.5247C18.5712 16.9134 18.0087 17.0394 17.7788 16.8911C17.2441 16.5454 17.3775 15.5024 17.3775 14.7614C17.3775 12.4466 17.7286 11.4814 16.6939 11.2316C16.3505 11.1486 16.0978 11.0938 15.2196 11.085C14.0924 11.0733 13.1384 11.0884 12.5982 11.3531C12.2388 11.5291 11.9616 11.9212 12.1304 11.9438C12.3392 11.9717 12.8121 12.0713 13.0628 12.4127C13.3865 12.853 13.3751 13.8422 13.3751 13.8422C13.3751 13.8422 13.5611 16.5671 12.9407 16.9057C12.5149 17.1378 11.9308 16.6638 10.6767 14.4967C10.0341 13.3867 9.54895 12.1597 9.54895 12.1597C9.54895 12.1597 9.4554 11.9304 9.28855 11.8077C9.08605 11.6591 8.80312 11.6118 8.80312 11.6118L5.80123 11.6315C5.80123 11.6315 5.35059 11.644 5.18516 11.84C5.03799 12.0142 5.17347 12.3747 5.17347 12.3747C5.17347 12.3747 7.52364 17.8731 10.1847 20.644C12.6247 23.1844 15.3956 23.0175 15.3956 23.0175Z" fill="white"/>
</svg>
